<?xml version="1.0" standalone="no"?>
<!DOCTYPE svg PUBLIC "-//W3C//DTD SVG 1.1//EN" "http://www.w3.org/Graphics/SVG/1.1/DTD/svg11.dtd" >
<!--
2013-9-30: Created.
-->
<svg>
<metadata>
Created by iconfont
</metadata>
<defs>

<font id="iconfont" horiz-adv-x="1024" >
  <font-face
    font-family="iconfont"
    font-weight="500"
    font-stretch="normal"
    units-per-em="1024"
    ascent="896"
    descent="-128"
  />
    <missing-glyph />
    
    <glyph glyph-name="kongtiao" unicode="&#59174;" d="M1466.28 896H115.473C54.468 896 6.536 848.068 6.536 787.064v-413.958c0-61.004 47.932-108.936 108.936-108.936h1350.809c61.004 0 108.936 47.932 108.936 108.936V787.064C1575.217 848.068 1525.107 896 1466.281 896zM115.473 852.426h1350.809c37.038 0 65.362-28.324 65.362-65.362v-305.021H50.11v305.02c0 37.04 28.323 65.363 65.361 65.363z m588.256-544.681H246.196v43.574h1089.361v-43.574h-631.83z m762.553 0h-87.15v87.149H202.622v-87.15h-87.149c-37.038 0-65.361 28.324-65.361 65.362v65.362h1481.532v-65.362c0-37.038-30.503-65.361-65.362-65.361zM115.472 612.766H289.77v-43.575H115.472z m217.873 0h43.574v-43.575h-43.574z m-21.788-435.745h-43.574c0-17.43-6.536-23.966-17.43-37.038-13.072-13.072-26.144-30.502-26.144-65.362 0-32.68 15.25-50.11 26.144-65.361 10.894-10.894 17.43-19.609 17.43-37.039s-6.536-23.966-17.43-34.86C237.481-75.71 224.41-93.14 224.41-128h43.574c0 17.43 6.536 26.145 17.43 37.038 13.072 13.073 26.144 30.502 26.144 65.362s-15.25 50.11-26.144 65.362c-10.894 10.893-17.43 19.608-17.43 37.038s6.536 23.966 17.43 37.038c10.893 13.073 26.144 30.502 26.144 63.183z m261.447 0H529.43c0-17.43-6.536-23.966-17.43-37.038-13.072-13.072-26.145-30.502-26.145-65.362 0-32.68 15.251-50.11 26.145-65.361 10.894-10.894 17.43-19.609 17.43-37.039s-6.536-23.966-17.43-34.86c-13.072-13.072-26.145-30.501-26.145-65.361h43.575c0 17.43 6.536 26.145 17.43 37.038 13.072 13.073 26.144 30.502 26.144 65.362s-15.25 50.11-26.144 65.362c-10.894 10.893-17.43 19.608-17.43 37.038s6.536 23.966 17.43 37.038c10.893 13.073 26.144 30.502 26.144 63.183z m261.447 0h-43.574c0-17.43-6.537-23.966-17.43-37.038-13.073-13.072-26.145-30.502-26.145-65.362 0-32.68 15.251-50.11 26.145-65.361 10.893-10.894 17.43-19.609 17.43-37.039s-6.537-23.966-17.43-34.86c-13.073-13.072-26.145-30.501-26.145-65.361h43.575c0 17.43 6.536 26.145 17.43 37.038 13.072 13.073 26.144 30.502 26.144 65.362s-15.251 50.11-26.145 65.362c-10.893 10.893-17.43 19.608-17.43 37.038s6.537 23.966 17.43 37.038c10.894 13.073 26.145 30.502 26.145 63.183z m261.447 0h-43.575c0-17.43-6.536-23.966-17.43-37.038-13.072-13.072-26.144-30.502-26.144-65.362 0-32.68 15.251-50.11 26.145-65.361 10.893-10.894 17.43-19.609 17.43-37.039s-6.537-23.966-17.43-34.86c-13.073-13.072-26.145-30.501-26.145-65.361h43.574c0 17.43 6.537 26.145 17.43 37.038 13.073 13.073 26.145 30.502 26.145 65.362s-15.251 50.11-26.145 65.362c-10.893 10.893-17.43 19.608-17.43 37.038s6.537 23.966 17.43 37.038c10.894 13.073 26.145 30.502 26.145 63.183z m261.447 0h-43.575c0-17.43-6.536-23.966-17.43-37.038-13.072-13.072-26.144-30.502-26.144-65.362 0-32.68 15.25-50.11 26.144-65.361 10.894-10.894 17.43-19.609 17.43-37.039s-6.536-23.966-17.43-34.86c-13.072-13.072-26.144-30.501-26.144-65.361h43.574c0 17.43 6.536 26.145 17.43 37.038 13.072 13.073 26.145 30.502 26.145 65.362s-15.251 50.11-26.145 65.362c-10.894 10.893-17.43 19.608-17.43 37.038s6.536 23.966 17.43 37.038c10.894 13.073 26.145 30.502 26.145 63.183z"  horiz-adv-x="1575" />

    
    <glyph glyph-name="renwu" unicode="&#58894;" d="M875.374 105.801h0.183a392.411 392.411 0 0 1-174.958 328.156 268.032 268.032 0 0 1 52.37 159.817c0 146.724-116.553 265.655-260.352 265.655-143.726 0-260.315-118.93-260.315-265.655 0-59.977 19.492-115.347 52.37-159.817A392.411 392.411 0 0 1 109.714 105.8h0.147v-124.343l-0.074-1.536c0-18.651 14.775-33.682 33.024-33.682a33.353 33.353 0 0 1 32.988 33.646l-0.073 1.572V115.895a324.498 324.498 0 0 0 156.196 268.873 255.963 255.963 0 0 1 160.695-56.65 255.963 255.963 0 0 1 160.695 56.613 324.462 324.462 0 0 0 156.233-268.726v-134.583c-0.036-0.476-0.11-0.988-0.11-1.5 0-18.651 14.775-33.682 33.024-33.682a33.353 33.353 0 0 1 32.988 33.646l-0.073 1.572V105.801zM492.617 400.64c-104.521 0-189.257 86.455-189.257 193.134s84.736 193.133 189.257 193.133 189.294-86.454 189.294-193.133-84.773-193.097-189.294-193.097z"  horiz-adv-x="1024" />

    
    <glyph glyph-name="wendu" unicode="&#58885;" d="M558.547934 237.360713V523.630165a46.554752 46.554752 0 1 1-93.095868 0V237.360713c-53.522965-18.613719-93.082231-69.818492-93.082231-132.641498 0-76.813977 62.836643-139.65062 139.636983-139.65062s139.636983 62.836643 139.636984 139.65062c0 60.504814-39.54563 111.69595-93.095868 132.641498z m93.095868 53.536601V756.363017C651.643802 833.163357 588.807159 896 512.006818 896S372.369835 833.163357 372.369835 756.363017v-465.452067A232.460123 232.460123 0 0 1 279.273967 104.732851c0-128.005114 104.727738-232.732851 232.732851-232.732851s232.719215 104.727738 232.719215 232.732851a232.446486 232.446486 0 0 1-93.082231 186.178099zM512.006818-81.458884c-102.409545 0-186.191736 83.78219-186.191735 186.191735 0 69.804855 37.241074 127.991477 93.095867 160.568895V756.363017a93.095868 93.095868 0 1 0 186.1781 0v-491.061271c55.909339-32.577417 93.095868-93.082231 93.095867-160.568895 0-102.409545-83.78219-186.191736-186.178099-186.191735z m0 0"  horiz-adv-x="1024" />

    
    <glyph glyph-name="shouye" unicode="&#58899;" d="M511.536986 896v-54.465715a100.462676 100.462676 0 0 0 65.535982-24.742047c3.51481-4.704864 7.66616-8.883889 12.315673-12.454051l357.043795-390.226922 1.107027-1.134702a33.459883 33.459883 0 0 0-1.605189-45.581826c-5.424431-5.036972-12.592429-7.749187-19.981832-7.527781h-30.969073a54.410364 54.410364 0 0 1-54.327337-54.465715v-323.058075c0-30.830694-23.635021-55.877174-52.694472-55.877174H614.130688V225.446235a54.410364 54.410364 0 0 1-54.327337 54.465715H449.737219a54.410364 54.410364 0 0 1-54.327337-54.465715v-298.980243H224.872415c-29.059452 0-52.694472 25.04648-52.694472 55.90485V305.401241a54.410364 54.410364 0 0 1-54.327337 54.465715H97.425963a30.415559 30.415559 0 0 0-29.419235 31.910045 29.280857 29.280857 0 0 0 7.859889 21.199562l1.107027 1.134702L438.445546 808.849321a98.608406 98.608406 0 0 0 73.063764 32.657288V896m0 0A153.129472 153.129472 0 0 1 398.537233 845.934716L37.176033 450.975255A83.44214 83.44214 0 0 1 13.845445 391.72165a84.770572 84.770572 0 0 1 83.635869-86.320409h20.147887v-323.058075C117.629201-78.432602 165.701836-127.999723 224.65101-127.999723h189.439948a35.618585 35.618585 0 0 1 35.701612 36.753287V225.446235h110.093808v-316.692671a35.646261 35.646261 0 0 1 34.483883-36.725612l1.217729-0.027675h192.37357c58.949173 0 107.021809 49.567122 107.021809 110.342889V305.401241h31.024424a81.919978 81.919978 0 0 1 58.949173 23.967128 87.814895 87.814895 0 0 1 1.577513 121.496184L625.034901 845.962392a12.287997 12.287997 0 0 0-6.033295 6.503782A154.790012 154.790012 0 0 1 511.730716 896h-0.166054z"  horiz-adv-x="1024" />

    
    <glyph glyph-name="xuduoshuidi" unicode="&#58955;" d="M505.9 351l-90.1 148.2c-3.6 5.9-12.2 6-15.9 0.1L307.1 352s0-0.1-0.1-0.1c-14.3-19.7-23-43.9-23.4-70-1.1-68.9 55.6-125.5 124.5-124.4 66.7 1.1 120.4 55.5 120.4 122.4 0 26.4-8.4 50.9-22.6 70.9v0.2zM596.7 434.7c52.3 0.9 94.5 43.6 94.5 96.1 0 20.7-6.6 40-17.8 55.7 0 0 0 0.1-0.1 0.1l-70.7 116.3c-2.8 4.7-9.6 4.7-12.5 0.1l-72.9-115.6s0-0.1-0.1-0.1c-11.3-15.5-18-34.4-18.3-54.9-0.6-54.1 43.8-98.6 97.9-97.7zM709.5 214.8l-52.7 86.7c-2.1 3.5-7.1 3.5-9.3 0.1l-54.3-86.1v-0.1c-8.4-11.5-13.4-25.6-13.7-40.9-0.6-40.3 32.5-73.4 72.8-72.7 39 0.6 70.4 32.4 70.4 71.6 0.1 15.4-4.8 29.7-13.2 41.4z"  horiz-adv-x="1024" />

    
    <glyph glyph-name="gantanhao" unicode="&#58896;" d="M468.114 274.286c7.315-21.943 21.943-36.572 43.886-36.572s36.571 14.629 43.886 36.572l29.257 402.285c0 43.886-36.572 73.143-73.143 73.143-43.886 0-73.143-36.571-73.143-80.457l29.257-394.971zM512 164.57c-43.886 0-73.143-29.257-73.143-73.142s29.257-73.143 73.143-73.143 73.143 29.257 73.143 73.143S555.886 164.57 512 164.57z"  horiz-adv-x="1024" />

    
    <glyph glyph-name="jiankong" unicode="&#58951;" d="M846.336 408.576l-150.528 215.04c-2.56 4.096-4.608 6.656-7.168 9.728-4.608 4.608-9.216 6.656-14.336 6.656s-10.24-2.048-14.336-6.656c-3.584-4.096-3.584-5.12-7.168-9.728l-177.152-252.928-128 163.84c-8.192 10.24-19.968 10.752-28.16 5.632-4.608-3.072-6.656-5.632-9.728-9.728L167.936 322.56c-8.192-11.776-6.144-21.504 5.632-29.696 11.776-8.192 21.504-6.144 29.696 5.632L330.24 486.4l128.512-164.864c8.704-11.264 21.504-11.264 29.696-3.584 3.072 2.56 7.168 8.704 10.752 13.824l174.08 248.832 137.216-196.096c8.192-11.776 17.92-13.312 29.696-5.12 12.288 7.68 14.336 17.408 6.144 29.184zM149.504 0h725.504c14.336 0 21.504-7.168 21.504-21.504s-7.168-21.504-21.504-21.504H149.504c-14.336 0-21.504 7.168-21.504 21.504s7.168 21.504 21.504 21.504zM362.496 170.496c14.336 0 21.504-7.168 21.504-21.504v-170.496c0-14.336-7.168-21.504-21.504-21.504-14.336 0-21.504 7.168-21.504 21.504v170.496c0.512 14.336 7.68 21.504 21.504 21.504z m299.008 0c14.336 0 21.504-7.168 21.504-21.504v-170.496c0-14.336-7.168-21.504-21.504-21.504s-21.504 7.168-21.504 21.504v170.496c0 14.336 7.168 21.504 21.504 21.504zM976.384 132.608H35.84V819.2h940.544v-686.592z m-899.584 40.96h858.624V778.24H76.8v-604.672z"  horiz-adv-x="1024" />

    
    <glyph glyph-name="equipment" unicode="&#58882;" d="M997.452 541.7719999999999c20.108 0 36.409 16.301 36.409 36.409v97.09c-0.055 73.708-59.791 133.444-133.494 133.499h-776.727c-73.708-0.055-133.444-59.791-133.499-133.494v-582.548c0.055-73.708 59.791-133.444 133.494-133.499h776.727c73.708 0.055 133.444 59.791 133.499 133.494v291.277c0 20.108-16.301 36.409-36.409 36.409s-36.409-16.301-36.409-36.409v-127.431h-898.085v418.702c0 33.447 27.234 60.682 60.682 60.682h776.723c33.447 0 60.682-27.234 60.682-60.682v-97.09c0-20.098 16.311-36.409 36.409-36.409zM961.043 183.75099999999998v-91.022c0-33.447-27.234-60.682-60.682-60.682h-776.723c-33.447 0-60.682 27.234-60.682 60.682v91.022h898.085zM815.31 474.635c20.108 0 36.409-16.301 36.409-36.409s-16.301-36.409-36.409-36.409h-112.091c-13.04 0.015-24.48 6.857-30.939 17.141l-23.043 37.326-85.343-141.753c-6.462-10.69-18.02-17.727-31.222-17.727-16.38 0-30.23 10.832-34.78 25.722l-60.166 199.196-25.292-96.07c-4.191-15.707-18.289-27.088-35.045-27.088-0.018 0-0.036 0-0.054 0h-168.642c-20.108 0-36.409 16.301-36.409 36.409s16.301 36.409 36.409 36.409h140.588l50.924 193.453c4.227 15.557 18.097 26.858 34.651 27.138 15.545-0.633 30.739-10.244 35.399-25.876l73.692-243.697 73.837 122.625c6.441 10.613 17.926 17.601 31.046 17.622h0.169c12.622 0 24.37-6.554 31.021-17.282l43.642-70.73h91.653zM135.775 92.72900000000004c0 20.108 16.301 36.409 36.409 36.409h97.09c20.108 0 36.409-16.301 36.409-36.409s-16.301-36.409-36.409-36.409h-97.09c-20.108 0-36.409 16.301-36.409 36.409zM378.501 92.72900000000004c0 20.108 16.301 36.409 36.409 36.409h97.09c20.108 0 36.409-16.301 36.409-36.409s-16.301-36.409-36.409-36.409h-97.09c-20.108 0-36.409 16.301-36.409 36.409zM754.725 92.72900000000004c0 26.811 21.735 48.545 48.545 48.545s48.545-21.735 48.545-48.545c0-26.811-21.735-48.545-48.545-48.545-26.811 0-48.545 21.735-48.545 48.545z"  horiz-adv-x="1024" />

    
    <glyph glyph-name="huoyan" unicode="&#58915;" d="M848.886567 289.08337C734.191141 538.173438 808.18819 618.070252 808.988158 618.970216c1.299948 1.299948 1.399944 3.299868 0.49998 4.899805-0.99996 1.49994-2.99988 2.099916-4.799809 1.399944-1.699932-0.599976-161.293569-67.297317-141.19437-215.19142C619.695706 449.57697 415.20386 652.068896 540.398868 890.159403c0.799968 1.49994 0.49998 3.299868-0.599976 4.499821-1.099956 1.299948-2.899884 1.699932-4.399825 0.99996-2.699892-1.099956-66.497349-28.498864-117.395319-97.596109-46.89813-63.597464-90.596388-176.192975-31.798732-350.386029 21.399147-81.896735-18.899246-148.394083-40.598381-176.592959 5.299789 19.499223 11.999522 52.397911 10.899565 90.196404-1.699932 55.297795-21.599139 131.794745-106.695746 181.292771-1.299948 0.799968-2.99988 0.699972-4.299829-0.199992-1.299948-0.99996-1.899924-2.4999-1.49994-4.099837 0.299988-1.399944 32.09872-146.994139-23.699055-214.391452-48.198078-58.197679-95.396196-159.293648-69.897213-252.989913 21.399147-78.296878 88.296479-138.094494 198.792074-177.692915 28.298872-8.699653 55.497787-15.399386 85.496591-20.999163 1.899924-0.399984 3.899845 0.799968 4.499821 2.599896 0.49998 1.99992-0.399984 4.099837-2.199912 4.899805-56.797735 24.699015-115.295403 76.096966-71.797137 180.492803 41.398349 89.996412 33.998644 136.394562 25.698975 156.293768 21.399147-12.099518 63.897452-43.498266 53.297875-98.696065-0.299988-1.599936 0.399984-3.299868 1.799928-4.099837 1.399944-0.899964 3.199872-0.799968 4.499821 0.299988 1.399944 0.99996 129.194849 106.59575 71.097165 235.890594 28.59886-16.599338 104.595829-74.49703 59.797616-207.491727-14.899406-57.197719 25.698975-98.296081 27.398908-100.096009 1.399944-1.299948 3.399864-1.599936 4.999801-0.49998 1.49994 0.899964 2.099916 2.899884 1.399944 4.699813-1.299948 3.599856-31.59874 85.396595 34.09864 130.594793-3.49986-20.999163-8.999641-72.997089 14.499422-101.295961 21.099159-25.498983 41.498345-67.297317 35.298593-108.195686-4.399825-28.698856-21.299151-52.897891-50.497986-71.897133-1.699932-1.199952-2.299908-3.199872-1.399944-5.099797 0.799968-1.799928 2.899884-2.599896 4.799809-2.099916 72.197121 23.999043 166.793349 71.497149 207.991707 162.193533C890.784897 117.590208 886.985048 197.78701 848.886567 289.08337z"  horiz-adv-x="1024" />

    
    <glyph glyph-name="fangchensheshitaizhang" unicode="&#59019;" d="M811.832168 659.924534c0.82191 7.842011-3.861169 15.186135-11.287709 17.866373-7.427669 2.694915-15.775471-0.038386-20.207912-6.610276-0.581433-0.839974-57.710924-80.566333-264.066681-86.482276 1.413504 2.572983 2.780719 5.234029 2.780719 8.126518 0 2.216221-0.419987 4.466311-1.30512 6.557213-2.359603 5.751109-7.597019 9.754531-13.746664 10.522249-6.658822 0.839974-164.757874 19.830827-325.368944-56.023074-8.616503-4.056485-12.306064-14.325839-8.240547-22.917504 4.074549-8.628922 14.328097-12.274452 22.943471-8.23716 110.594258 52.270289 222.165098 56.485963 274.888115 54.950527l-0.088062-0.086933c-2.414924-3.109257-3.638756-6.842849-3.638756-10.594505 0-2.540243 0.563369-5.127903 1.708172-7.469442 2.842814-5.910298 8.775691-9.701469 15.318227-9.754531 167.68875-1.927197 254.715202 40.623559 295.820842 71.5671 4.540825-61.706443 30.298884-109.047533 36.071444-118.907061 10.305482-2.390086 18.90505-4.644692 25.911603-6.610276 7.149936 5.273544 9.223903 15.220004 4.459537 22.902827C843.391012 519.371219 803.976609 583.897896 811.832168 659.924534zM958.780119 376.731519c-22.728961 22.724445-48.137032 22.082046-68.534615 14.094395 6.703982 14.293098 41.622721 93.272062 41.622721 182.327321 0 21.309813-2.008485 43.212348-6.907202 64.937632-20.824344 92.516763-59.901178 139.573345-118.711744 144.449482C784.771246 814.126289 691.185323 925.8868 463.039929 886.580781 190.117398 839.54452 66.543065 720.961482 95.770531 534.06624c0.43918-3.234576 12.396384-87.462245 48.631533-141.756825l0.884004-1.158351c-20.251943 7.662501-45.260348 7.96733-67.641579-14.418417-18.501998-18.503127-21.701574-54.235872-21.128044-80.958095 1.618981-73.94138 35.197601-177.734562 106.520838-243.975056-1.681076 16.093848-2.128159 29.798739-2.128159 39.552141 0 6.325768 0.143383 10.55499 0.295797 13.07604-46.610628 58.146717-68.981698 134.967039-70.242787 192.076207-0.643528 30.353076 5.069195 49.934395 11.03933 55.881949 20.922567 20.918051 45.608079-1.162867 50.34535-5.808688 2.563951-2.501857 5.702562-4.037292 8.99133-4.679691 0 35.084701 0 67.046598 0 90.016035-22.80912 46.466117-31.398527 106.491484-31.478686 107.167753C104.073173 704.046853 218.14587 809.427405 468.903938 852.640882c233.525063 40.246474 309.104617-89.143321 312.221777-94.701372 3.047162-5.41241 8.820851-8.841173 15.060816-8.841173 18.714249 0 68.470262 0 95.177808-118.583039 15.185006-67.457552-1.581724-139.250452-16.284648-183.591797 0-22.671383 0-61.469354 0-105.023788 3.269574 0.64127 6.426249 2.177835 8.982298 4.679691 4.736141 4.644692 29.422783 26.726739 50.337447 5.808688 5.988198-5.948684 11.707696-25.528873 11.037072-55.881949-1.250928-57.109169-23.620869-133.929491-70.214562-192.076207 0.125319-2.52105 0.277733-6.750271 0.277733-13.07604 0-9.754531-0.447083-23.458293-2.136062-39.552141 71.323237 66.240494 104.919921 170.032547 106.536644 243.975056C980.464759 322.495647 977.264053 358.229521 958.780119 376.731519zM840.833835 89.253963c0 0 0 54.21555 0 115.31798l-31.911092 0 0 27.941539 31.911092 0c0 206.036251-645.259996 206.036251-645.259996 0l31.911092 0 0-27.941539-31.911092 0c0-61.101301 0-115.31798 0-115.31798 0-0.375956-0.018064-0.811749-0.062095-1.20351-0.107255-1.100772-0.598368-6.23432-0.598368-14.297614 0-40.10535 12.073491-152.162787 141.039912-197.243625l3.881491 1.55237c47.964295 18.718765 111.321332 29.056988 178.371316 29.056988 67.094015 0 130.431859-10.338223 178.369058-29.056988l3.899555-1.55237c128.948357 45.080838 141.03088 157.138276 141.03088 197.243625 0 8.063294-0.493372 13.196842-0.608529 14.297614C840.85077 88.442214 840.833835 88.878007 840.833835 89.253963z"  horiz-adv-x="1024" />

    
    <glyph glyph-name="shebeiquanrejiaohuanxinfengchushiji" unicode="&#59510;" d="M621.504 806.464 519.296 806.464c-0.192 0-0.384 0.192-0.384 0.384l0 0c0 13.888-11.328 25.216-25.216 25.216L448.064 832.064c-13.888 0-25.216-11.328-25.216-25.216l0 0c0-0.192-0.192-0.384-0.384-0.384L320.256 806.464c-79.04 0-143.744-64.704-143.744-143.744l0-24.96c0-0.32 0.384-0.512 0.64-0.32C226.24 670.976 315.52 707.328 445.44 666.816c189.056-58.944 278.784-38.784 319.68-15.488 0.128 0.064 0.192 0.192 0.192 0.32L765.312 662.72C765.248 741.76 700.544 806.464 621.504 806.464zM515.52 93.312c0 48.384 19.648 92.096 51.456 123.712L218.048 217.024l0 144 505.6 0 0-96.448c8.128-1.6 15.808-4.288 23.488-6.912L747.136 361.728c10.432 2.56 18.112 11.968 18.112 23.168L765.248 630.144C724.48 606.784 634.816 586.432 445.44 645.504c-130.432 40.704-219.904 3.84-268.928-29.888l0-230.72c0-11.2 7.68-20.608 18.112-23.168l0-144.704L192.192 217.024c-8.704 0-15.744-7.04-15.744-15.744l0-69.312c0-61.632 41.856-114.048 98.496-130.112-0.128-1.152-0.192-2.304-0.192-3.52l0-30.4c0-17.6 14.4-32 32-32l8 0c17.6 0 32 14.4 32 32l0 28.8L544.64-3.264C526.336 24.512 515.52 57.6 515.52 93.312zM815.104 143.936l2.304 2.304-6.208 6.208C812.608 149.632 813.952 146.816 815.104 143.936zM556.224 78.144c-0.576 4.992-0.896 10.048-0.896 15.168 0 74.368 60.48 134.848 134.848 134.848 42.176 0 79.872-19.52 104.64-49.92 0.512 3.2 1.664 6.272 4.16 8.704 3.904 3.904 9.344 5.056 14.4 3.968-28.864 36.352-73.28 59.712-123.2 59.712-86.784 0-157.376-70.592-157.376-157.376 0-11.904 1.472-23.424 3.968-34.624L556.224 78.144zM824.128 108.48c0.576-4.992 0.896-10.048 0.896-15.168 0-74.368-60.48-134.848-134.848-134.848-42.176 0-79.872 19.52-104.64 49.92-0.512-3.2-1.664-6.272-4.16-8.704-3.072-3.072-7.104-4.608-11.136-4.608-1.088 0-2.176 0.384-3.264 0.64C595.84-40.576 640.256-64 690.112-64c86.784 0 157.376 70.592 157.376 157.376 0 11.904-1.408 23.424-3.968 34.56L824.128 108.48zM565.248 42.688l-2.304-2.304 6.208-6.208C567.744 36.928 566.4 39.744 565.248 42.688zM575.808 64.32c3.072 3.072 3.072 8.064 0 11.136-3.072 3.072-8.064 3.072-11.136 0l-29.568-29.568c-3.072-3.072-3.072-8.064 0-11.136l29.568-29.568c1.536-1.536 3.584-2.304 5.568-2.304 2.048 0 4.032 0.768 5.568 2.176 3.072 3.072 3.072 8.064 0 11.136l-16.192 16.256 50.624 0 0 15.744L559.744 48.192 575.808 64.32zM730.048 188.992l-107.52 0c-4.352 0-7.872-3.52-7.872-7.872s3.52-7.872 7.872-7.872l107.456 0c11.584 0 20.928-9.408 20.928-20.928l0-22.72c0-0.192-0.064-0.448-0.064-0.64-0.384-44.544-36.544-80.768-81.216-80.768L632.768 48.192l0-15.744 36.864 0c53.568 0 97.088 43.584 97.088 97.088L766.72 152.32C766.72 172.544 750.272 188.992 730.048 188.992zM845.248 151.936l-29.632 29.568c-3.072 3.072-8.064 3.072-11.136 0-3.072-3.072-3.072-8.064 0-11.136l16.256-16.256-50.688 0 0-15.744 50.56 0L804.48 122.24c-3.072-3.072-3.072-8.064 0-11.136 1.536-1.536 3.584-2.304 5.568-2.304 2.048 0 4.032 0.768 5.568 2.432l29.632 29.568c1.472 1.472 2.304 3.456 2.304 5.568C847.552 148.48 846.72 150.464 845.248 151.936zM757.824 13.312l-107.52 0c-11.52 0-20.928 9.408-20.928 20.928L629.376 56.96c0 44.864 36.48 81.408 81.344 81.408l36.864 0 0 15.744-36.864 0c-53.568 0-97.088-43.584-97.088-97.088l0-22.72c0-20.224 16.448-36.672 36.672-36.672l107.52 0c4.352 0 7.872 3.52 7.872 7.872S762.176 13.312 757.824 13.312z"  horiz-adv-x="1024" />

    
    <glyph glyph-name="01" unicode="&#58933;" d="M514.404 886.75c-15.942 0-28.845-12.903-28.845-28.845v-96.15c0-15.942 12.903-28.845 28.845-28.845 15.922 0 28.845 12.903 28.845 28.845v96.15c0 15.922-12.923 28.845-28.845 28.845zM195.762 730.199c-10.692 11.788-28.941 12.673-40.729 1.961s-12.673-28.96-1.981-40.748l64.632-71.19c10.711-11.788 28.941-12.673 40.748-1.981 11.788 10.711 12.673 28.941 1.981 40.748l-64.651 71.209zM822.777 742.371l-60.825-74.516c-10.057-12.346-9.23-31.441 1.885-42.652 11.077-11.211 28.249-10.288 38.325 2.058l60.825 74.516c10.057 12.346 9.23 31.441-1.885 42.652-11.077 11.211-28.23 10.288-38.325-2.058zM998.251 424.652l-96.189 0.231c-15.942 0.038-30.23-12.634-31.941-28.326-1.692-15.672 9.846-28.422 25.787-28.46l96.189-0.231c15.942-0.038 30.23 12.634 31.941 28.307 1.692 15.692-9.846 28.441-25.787 28.48zM132.899 424.652l-96.189 0.231c-15.942 0.038-30.23-12.634-31.941-28.326-1.711-15.672 9.827-28.422 25.768-28.46l96.189-0.231c15.942-0.038 30.23 12.634 31.941 28.307 1.711 15.692-9.827 28.441-25.768 28.48zM674.898 149.816l-3.288 1.096c-19.634 0.615-284.201 1.635-311.931 1.635h-3l-2.461 1.711c-78.151 53.94-124.822 142.802-124.822 237.722 0 77.036 29.999 149.475 84.478 203.954s126.918 84.497 203.954 84.497c159.013 0 288.374-129.399 288.374-288.451 0-96.246-47.671-185.781-127.438-239.529l-3.865-2.635zM362.717 171.777c29.653-0.077 266.105-0.615 307.527-1.865 73.17 50.325 116.726 133.13 116.726 222.069 0 148.456-120.707 269.221-269.144 269.221-71.92 0-139.514-27.999-190.358-78.862s-78.843-118.457-78.843-190.358c-0-87.651 42.595-169.724 114.092-220.203zM510.615-124.539c-61.075 0-111.227 35.768-115.13 80.862-47.325 5.711-57.94 33.172-57.94 56.613 0 18.769 6.788 40.095 33.691 50.806-26.922 10.711-33.691 32.037-33.691 50.787 0 26.326 13.346 57.69 76.92 57.69h192.224c63.594 0 76.92-31.364 76.92-57.69 0-18.749-6.807-40.075-33.691-50.787 26.884-10.711 33.691-32.037 33.691-50.806 0-23.461-10.596-50.902-57.94-56.613-3.904-45.094-54.017-80.862-115.053-80.862zM415.292-46.792c6.173-32.98 46.575-58.517 95.343-58.517 48.517 0 88.766 25.326 95.17 58.094-21.307 0.442-75.228 0.981-126.091 0.981-37.326 0-55.536-0.308-64.421-0.558zM414.465 51.397c-51.71 0-57.69-21.961-57.69-38.46s5.981-38.46 57.69-38.46h192.224c51.71 0 57.69 21.961 57.69 38.46s-5.981 38.46-57.69 38.46h-192.224zM414.465 152.97c-51.71 0-57.69-21.98-57.69-38.46 0-16.499 5.981-38.46 57.69-38.46h192.224c51.71 0 57.69 21.961 57.69 38.46 0 16.48-5.981 38.46-57.69 38.46h-192.224zM406.619 369.674h211.454l-57.69-211.434h-96.073l-57.69 211.434z"  horiz-adv-x="1037" />

    
    <glyph glyph-name="gongdan" unicode="&#58880;" d="M537.6 115.20000000000005H275.2c-19.2 0-32 12.8-32 32s12.8 32 32 32h268.8c12.8 38.4 32 76.8 57.6 102.4H275.2c-19.2 0-32 12.8-32 32s12.8 32 32 32h435.2c19.2 6.4 38.4 6.4 51.2 6.4 51.2 0 96-19.2 134.4-44.8V665.6c0 64-51.2 115.2-115.2 115.2h-19.2v-121.6c0-64-51.2-115.2-115.2-115.2H345.6c-64 0-115.2 51.2-115.2 115.2V780.8h-32c-64 0-115.2-51.2-115.2-115.2v-640c0-64 51.2-115.2 115.2-115.2H704c-89.6 19.2-160 102.4-166.4 204.8zM345.6 601.6h300.8c32 0 57.6 25.6 57.6 57.6V780.8H588.8C582.4 825.6 544 864 492.8 864c-44.8 0-83.2-38.4-89.6-83.2H288v-121.6c0-32 25.6-57.6 57.6-57.6zM902.4 236.79999999999995c-32 38.4-83.2 64-134.4 64h-32c-19.2 0-32-6.4-51.2-19.2-38.4-19.2-70.4-57.6-89.6-102.4-6.4-19.2-6.4-38.4-6.4-57.6v-6.4c6.4-96 83.2-166.4 172.8-166.4 51.2 0 102.4 25.6 134.4 64 25.6 32 38.4 70.4 38.4 115.2 6.4 38.4-12.8 76.8-32 108.8z m-38.4-83.2l-102.4-102.4c-12.8-12.8-25.6-12.8-38.4 0l-64 64c-12.8 12.8-12.8 25.6 0 38.4 12.8 12.8 25.6 12.8 38.4 0l32-32 12.8-12.8 83.2 83.2c12.8 12.8 25.6 12.8 38.4 0 12.8-12.8 12.8-25.6 0-38.4z"  horiz-adv-x="1024" />

    
    <glyph glyph-name="tubiaozhizuomoban-fuben" unicode="&#58883;" d="M503.524651 888.676533m44.160677 0l64.575053 0q44.160677 0 44.160676-44.160677l0-584.118393q0-44.160677-44.160676-44.16067699l-64.575053 0q-44.160677 0-44.160677 44.16067699l0 584.118393q0 44.160677 44.160677 44.160677ZM579.97285399 89.35306601000002m-206.90063399 0a206.90063399 206.90063399 0 1 1 413.801268 0 206.90063399 206.90063399 0 1 1-413.801268 0ZM530.704355-128c-122.266385 0-221.750529 99.484144-221.750528 221.750529a222.985201 222.985201 0 0 0 122.19873101 198.17336099V796.448203a99.551797 99.551797 0 0 0 199.10359399 0v-504.52431301a222.985201 222.985201 0 0 0 122.18181799-198.17336099c0-122.266385-99.484144-221.750529-221.73361499-221.750529z m0 1009.369979a85.00634201 85.00634201 0 0 1-84.904862-84.904863v-509.090909a7.323467 7.323467 0 0 0-4.16067699-6.613108 207.10359399 207.10359399 0 1 1 178.14799199 0 7.323467 7.323467 0 0 0-4.160677 6.613108v509.090909a85.00634201 85.00634201 0 0 1-84.921776 84.88795001zM579.97285399 771.078224h-100.701903a7.323467 7.323467 0 0 0 2e-8 14.64693499h100.68498999a7.323467 7.323467 0 0 0 0-14.64693499zM579.97285399 621.1416489999999h-100.701903a7.323467 7.323467 0 0 0 2e-8 14.646935h100.68498999a7.323467 7.323467 0 0 0 0-14.646935zM579.97285399 741.090909h-67.65327698a7.323467 7.323467 0 0 0 0 14.646935h67.65327698a7.323467 7.323467 0 0 0 0-14.646935zM579.97285399 711.10359399h-67.65327698a7.323467 7.323467 0 0 0 0 14.64693501h67.65327698a7.323467 7.323467 0 0 0 0-14.64693499zM579.97285399 681.116279h-67.65327698a7.323467 7.323467 0 0 0 0 14.64693501h67.65327698a7.323467 7.323467 0 0 0 0-14.64693501zM579.97285399 651.128964h-67.65327698a7.323467 7.323467 0 0 0 0 14.646935h67.65327698a7.323467 7.323467 0 0 0 0-14.646935zM292.46334 313.33615199999997a10.249471 10.249471 0 0 0-10.249471 10.249472V640.30444l-26.55391101-34.13107801a10.249471 10.249471 0 1 0-16.16913299 12.58350901l44.88794899 57.67441899a10.249471 10.249471 0 0 0 18.33403801-6.29175499v-346.553911a10.249471 10.249471 0 0 0-10.249472-10.249472zM338.095476 604.6680759999999a10.147992 10.147992 0 0 0-7.89852 3.72093001l-45.66596199 55.23890099a10.249471 10.249471 0 1 0 15.79704 13.057082l45.66596199-55.2389a10.249471 10.249471 0 0 0-7.89852-16.778013zM562.721268 229.59830899999997c9.792812 0 9.809725 15.221987 0 15.221987s-9.809725-15.221987 0-15.221987zM470.492939 122.73995799c9.792812 0 9.809725 15.221987 0 15.22198702s-9.809725-15.221987 0-15.221987zM616.962283 40.761098999999945c9.792812 0 9.809725 15.221987 0 15.221988s-9.809725-15.221987 0-15.221988zM496.877717-44.160676999999964c9.792812 0 9.809725 15.221987 0 15.221988s-9.809725-15.221987 0-15.221988zM682.772008 179.83932300000004c9.792812 0 9.809725 15.221987 0 15.221988s-9.809725-15.221987 0-15.221988zM572.987653 235.07822399999998c6.528541 0 6.545455 10.147992 0 10.147992s-6.545455-10.147992 0-10.147992zM504.167357-32.828753000000006c6.528541 0 6.545455 10.147992 0 10.147992s-6.545455-10.147992 0-10.147992zM565.647273 113.55602499999998c6.528541 0 6.545455 10.147992 0 10.147992s-6.545455-10.147992 0-10.147992zM691.550021 24.25369999999998c6.528541 0 6.545455 10.147992 0 10.147991s-6.545455-10.147992 0-10.147991zM404.61556 96c6.528541 0 6.545455 10.147992 0 10.147992s-6.545455-10.147992 0-10.147992z"  horiz-adv-x="1024" />

    
    <glyph glyph-name="dunpai" unicode="&#58881;" d="M987.156921 332.108849c-1.353046-12.616242-37.739019-310.322977-460.474537-454.989215l-14.737233-5.046496-14.664096 5.046496C74.545536 21.785872 38.159564 319.492608 36.806518 332.108849l-0.219413 4.095708V747.494036L511.945151 896l475.431183-148.505964-0.219413-415.385187zM900.781377 688.179416L511.945151 809.624455 123.108925 688.179416v-349.48818c3.437469-23.916006 44.7968-255.469752 388.836226-379.255196 343.088637 123.492893 385.654739 357.49675 388.836226 379.291765V688.179416zM207.29034 352.367974l-0.146275 2.669523V625.975859l305.057067 95.298336v-664.491965l-8.849653 2.998643c-271.779444 93.067638-295.220056 284.505392-296.061139 292.587101z"  horiz-adv-x="1024" />

    
    <glyph glyph-name="fangchao" unicode="&#58944;" d="M506.610526 675.031579S317.978947 378.61052600000005 317.978947 249.26315799999998c5.389474-97.010526 91.621053-172.463158 188.631579-167.073684 97.010526-5.389474 183.242105 70.063158 188.631579 167.073684 0 129.347368-183.242105 425.768421-188.631579 425.768421z m-97.010526-344.926316c-10.778947-21.557895-26.947368-37.726316-37.726316-32.336842s-16.168421 26.947368-5.389473 48.505263 26.947368 37.726316 37.726315 32.336842 16.168421-26.947368 5.389474-48.505263z m215.578947-150.905263c-26.947368-37.726316-70.063158-59.284211-91.621052-48.505263s-16.168421 53.894737 10.778947 97.010526 70.063158 59.284211 91.621053 48.505263 16.168421-59.284211-10.778948-97.010526zM889.263158 734.315789s-64.673684 10.778947-172.463158 37.726316C603.621053 809.768421 571.284211 842.105263 571.284211 842.105263L512 896 458.105263 847.494737s-26.947368-26.947368-140.126316-70.063158c-107.789474-32.336842-177.852632-43.115789-177.852631-43.11579L80.842105 728.926316V249.26315799999998c80.842105-220.968421 398.821053-377.263158 431.157895-377.263158 53.894737 0 344.926316 156.294737 431.157895 377.263158V728.926316L889.263158 734.315789z m-53.894737-463.494736c-70.063158-134.736842-183.242105-231.747368-323.368421-280.252632-134.736842 48.505263-253.305263 150.905263-323.368421 280.252632V631.915789s237.136842 32.336842 323.368421 118.568422c97.010526-97.010526 323.368421-118.568421 323.368421-118.568422v-361.094736z"  horiz-adv-x="1024" />

    
    <glyph glyph-name="shu" unicode="&#59450;" d="M928.850569 375.346311c108.238916-448.864188-278.478409-450.778087-278.478409-450.778087C1151.533335 236.497201 422.557219 651.86206 422.557219 651.86206c176.090904 10.130256 219.098776 90.34335 184.928973 141.482246C570.805158 848.164714 382.170291 722.651944 382.170291 722.651944S468.186035 871.643501 377.172211 894.415243C286.109625 917.174794 253.146675 687.263097 253.146675 687.263097c-103.691882 10.361874-177.63909-18.83423-217.904113-41.593781l55.198312 76.153679-42.422731 6.436552-14.811385-83.784894C11.471204 631.955072 0 621.593198 0 621.593198c11.227395-3.218276 21.979363-7.033884 32.134-11.446823l9.679209-86.405839 49.700423 7.862834-55.320216 76.75101c138.946634-61.256961 178.955658-214.064125 178.955658-214.064125-72.740355-2.730659-94.841622-59.830679-101.546364-92.720486-1.304377-6.436552 6.826646-10.483778 11.239585-5.607602 30.707718 33.974756 102.862932 94.158958 130.218279-53.150318C290.181232 53.396793 423.9835 4.171797 423.9835 4.171797s-90.197065 236.360439 0.963045 286.292481c66.77923 36.595701 99.632465-30.622385 99.632465-30.622385-202.141875 88.075928-56.990307-306.796801-56.990306-306.796801C164.863509 64.855807 203.702251-90.450397 203.702251-90.450397h322.071422l16.493665-6.314648c51.248609-19.66318 105.605781-31.463525 160.450571-31.231907 234.629397 1.316568 344.660308 190.231815 271.663953 529.918422C890.987063 790.126029 1194.663111 773.083794 1194.663111 773.083794S820.733557 824.198309 928.850569 375.346311zM232.837402 594.408517a27.184681 27.184681 0 0 0-27.233442 27.184681c0 15.018622 12.19044 27.172491 27.233442 27.17249a27.184681 27.184681 0 0 0 27.245633-27.184681c0-15.006432-12.19044-27.172491-27.245633-27.17249z"  horiz-adv-x="1194" />

    
    <glyph glyph-name="menjin" unicode="&#59079;" d="M604.714667 186.752h346.026666c20.906667 0 37.888 16.981333 37.888 37.845333v106.538667h-421.802666v-106.538667c0-20.864 16.981333-37.845333 37.888-37.845333z m-37.888 199.381333h421.717333v31.872a37.930667 37.930667 0 0 1-37.845333 37.845334h-346.026667a37.930667 37.930667 0 0 1-37.845333-37.845334v-31.872z m-308.821334 0.938667c-2.005333 0-3.754667-1.834667-3.754666-4.181333 0-4.437333 7.509333-4.437333 7.509333 0 0 2.133333-1.706667 4.181333-3.754667 4.181333z m253.44-161.28v193.408c0 51.242667 41.514667 92.757333 92.757334 92.8h103.381333V868.181333a27.52 27.52 0 0 1-27.52 27.52H112.896a27.562667 27.562667 0 0 1-27.52-27.52v-965.162666c0-15.232 12.288-27.562667 27.52-27.562667H680.106667a27.52 27.52 0 0 1 27.52 27.562667v229.888h-103.381334a92.885333 92.885333 0 0 0-92.842666 92.842666h0.042666z m-312.746666 161.621333c0 30.805333 25.088 55.893333 55.893333 55.893334a55.978667 55.978667 0 0 0 0-111.829334c-30.848 0.042667-55.893333 25.088-55.893333 55.936z m141.013333 95.573334a27.605333 27.605333 0 0 0-27.562667 27.605333 186.88 186.88 0 0 0 55.04 132.906667 186.496 186.496 0 0 0 132.949334 54.997333 27.52 27.52 0 1 0 0-55.082667c-35.498667 0-68.906667-13.866667-93.994667-38.954666a132.096 132.096 0 0 1-38.912-93.994667 27.477333 27.477333 0 0 0-27.562667-27.392v-0.042667z m88.917333-4.992a27.562667 27.562667 0 0 0-27.52 27.52 103.978667 103.978667 0 0 0 103.808 103.850666 27.562667 27.562667 0 0 0 0-55.04 48.725333 48.725333 0 0 1-48.725333-48.768c0-15.232-12.330667-27.562667-27.562667-27.562666z"  horiz-adv-x="1024" />

    
    <glyph glyph-name="shipin" unicode="&#59002;" d="M214.6 489.1c60 0 108.6 48.6 108.6 108.6s-48.6 108.6-108.6 108.6S106 657.6 106 597.7c0-60 48.6-108.6 108.6-108.6zM558.7 486.2H201.6C100.4 486.2 18 403.9 18 302.6v-150.2c0-101.2 82.3-183.6 183.6-183.6h357.1c101.2 0 183.6 82.3 183.6 183.6V302.7c0 101.2-82.3 183.5-183.6 183.5z m131.6-333.8c0-72.6-59-131.6-131.6-131.6H201.6c-72.5 0-131.6 59-131.6 131.6V302.7c0 72.6 59 131.6 131.6 131.6h357.1c72.5 0 131.6-59 131.6-131.6v-150.3zM511.3 489.1c89.9 0 162.8 72.9 162.8 162.8S601.2 814.7 511.3 814.7s-162.8-72.9-162.8-162.8 72.9-162.8 162.8-162.8z m0 271.3c60 0 108.6-48.6 108.6-108.6s-48.6-108.6-108.6-108.6-108.6 48.6-108.6 108.6 48.6 108.6 108.6 108.6zM969.5 485.1L792.9 345.7c-19.5-4.7-33.2-22.1-33.2-42.1v-150.7c0-20 13.7-37.4 33.2-42.1l176.6-139.4c23.5 0 42.5 19 42.5 42.5V442.6c0 23.4-19 42.5-42.5 42.5z m5.8-217.5c0-16-13.1-29-29-29-16 0-29 13.1-29 29V316c0 16 13.1 29 29 29 16 0 29-13.1 29-29v-48.4z"  horiz-adv-x="1024" />

    
    <glyph glyph-name="dengyouhaichongjianceyi" unicode="&#59132;" d="M128.273067 634.436267l101.444266-27.648a21.230933 21.230933 0 0 0 9.216-5.290667l69.8368-75.093333c1.297067 2.628267 1.297067 6.587733 2.628267 9.216h1.3312c1.297067 5.256533 3.925333 10.5472 5.256533 15.803733h173.909334v-504.593067c-80.384 0-150.186667 77.7216-183.125334 189.713067H232.3456l-94.856533-108.032a21.845333 21.845333 0 0 0-15.803734-6.587733 16.930133 16.930133 0 0 0-13.175466 5.256533c-7.918933 6.587733-7.918933 19.797333-1.3312 27.648l101.444266 114.653867a21.845333 21.845333 0 0 0 15.837867 6.587733h75.093333c-5.290667 26.350933-9.216 55.330133-9.216 84.309333H122.948267a20.2752 20.2752 0 0 0-19.7632 19.797334c0 10.513067 9.216 19.729067 19.797333 19.729066h167.287467a656.384 656.384 0 0 0 7.918933 75.093334l-84.309333 93.525333-96.187734 26.385067c-10.5472 2.628267-17.134933 14.472533-14.506666 25.019733 2.6624 10.5472 14.506667 17.134933 25.053866 14.506667z m764.142933-14.506667c2.628267-10.5472-3.959467-22.391467-14.506667-25.019733l-96.1536-26.350934-84.309333-90.9312c3.925333-23.688533 7.850667-50.039467 7.850667-75.093333h167.355733c10.5472 0 19.7632-9.216 19.7632-19.7632 0-10.513067-9.216-19.7632-19.797333-19.7632h-167.287467c-1.3312-28.9792-3.959467-57.9584-9.216-84.309333h75.093333c5.256533 0 11.844267-2.628267 15.803734-6.587734l101.444266-114.619733c7.918933-7.918933 6.587733-21.0944-1.3312-29.013333a18.875733 18.875733 0 0 0-13.141333-5.2224 24.302933 24.302933 0 0 0-15.837867 6.587733l-94.856533 108.032h-76.3904c-32.938667-111.991467-102.775467-189.7472-183.159467-189.7472V550.0928h175.240534c1.3312-5.256533 3.959467-10.513067 5.256533-15.803733h-1.297067c1.297067-2.628267 1.297067-6.587733 2.628267-9.216l69.8368 75.093333c2.628267 2.628267 5.256533 5.290667 9.216 5.290667l101.444267 27.648c11.844267 3.959467 22.391467-2.628267 26.350933-13.175467zM497.152 725.333333c75.093333 0 139.6736-65.877333 175.240533-165.9904H321.9456C357.512533 659.456 422.058667 725.333333 497.152 725.333333z m-61.917867-73.796266a27.0336 27.0336 0 0 1-27.648-27.648c0-15.803733 11.844267-27.648 27.648-27.648 15.803733 0 27.648 13.141333 27.648 27.648a27.0336 27.0336 0 0 1-27.648 27.648z m125.166934 0a27.0336 27.0336 0 0 1-27.648-27.648c0-15.803733 11.844267-27.648 27.648-27.648 14.506667 0 27.648 13.141333 27.648 27.648a27.0336 27.0336 0 0 1-27.648 27.648z"  horiz-adv-x="1024" />

    
    <glyph glyph-name="huaban" unicode="&#58893;" d="M465.066667 152.96a21.333333 21.333333 0 0 0-13.226667 4.693333A21.333333 21.333333 0 0 0 448 187.733333l85.333333 106.666667h-108.373333a21.333333 21.333333 0 0 0-19.413333 11.946667 21.333333 21.333333 0 0 0 2.56 22.613333L523.733333 469.333333a21.333333 21.333333 0 0 0 33.28-26.88l-85.333333-106.666666h108.586667a21.333333 21.333333 0 0 0 19.2-12.16 21.333333 21.333333 0 0 0-2.56-22.613334l-114.346667-141.866666a21.333333 21.333333 0 0 0-17.493333-6.186667zM740.266667 56.106667H283.52V387.2A234.666667 234.666667 0 0 0 512 626.133333a234.666667 234.666667 0 0 0 228.266667-238.933333z m-414.08 42.666666H697.6V387.2a192 192 0 0 1-185.6 196.266667 192 192 0 0 1-185.813333-196.266667zM512 676.906667a21.333333 21.333333 0 0 0-21.333333 21.333333V746.666667a21.333333 21.333333 0 0 0 42.666666 0v-48.426667a21.333333 21.333333 0 0 0-21.333333-21.333333zM723.2 602.666667a21.333333 21.333333 0 0 0-13.866667 5.333333 21.333333 21.333333 0 0 0-2.346666 30.08l30.72 35.626667a21.333333 21.333333 0 0 0 32.426666-27.946667l-30.72-35.626667a21.333333 21.333333 0 0 0-16.213333-7.466666zM303.146667 603.52a21.333333 21.333333 0 0 0-15.573334 6.826667L256 644.266667a21.333333 21.333333 0 0 0 0 30.08 21.333333 21.333333 0 0 0 30.293333 0L318.506667 640a21.333333 21.333333 0 0 0 0-30.08 21.333333 21.333333 0 0 0-15.36-6.4zM234.666667 422.4H188.16a21.333333 21.333333 0 0 0 0 42.666667H234.666667a21.333333 21.333333 0 0 0 0-42.666667zM830.506667 422.4h-45.653334a21.333333 21.333333 0 0 0 0 42.666667h45.653334a21.333333 21.333333 0 0 0 0-42.666667zM822.826667 54.4H201.173333a21.333333 21.333333 0 0 0 0 42.666667h621.653334a21.333333 21.333333 0 1 0 0-42.666667z"  horiz-adv-x="1024" />

    


  </font>
</defs>
</svg>
