<?xml version="1.0" standalone="no"?>
<!DOCTYPE svg PUBLIC "-//W3C//DTD SVG 1.1//EN" "http://www.w3.org/Graphics/SVG/1.1/DTD/svg11.dtd" >
<!--
2013-9-30: Created.
-->
<svg>
<metadata>
Created by iconfont
</metadata>
<defs>

<font id="iconfont" horiz-adv-x="1024" >
  <font-face
    font-family="iconfont"
    font-weight="500"
    font-stretch="normal"
    units-per-em="1024"
    ascent="896"
    descent="-128"
  />
    <missing-glyph />
    
    <glyph glyph-name="data-pie" unicode="&#58949;" d="M617.328 820.034c30.27-5.237 59.791-13.91 88.286-25.961 48.418-20.477 91.915-49.807 129.283-87.175s66.698-80.866 87.176-129.284c12.051-28.495 20.724-58.016 25.961-88.286L617.328 489.328 617.328 820.034M547.328 896l0-476.672L1024 419.328C1024 682.61 810.61 896 547.328 896L547.328 896zM512 384L512 825.401l-70.599-1.82C194.674 805.49 0 600.0070000000001 0 348.672 0 85.39099999999996 213.39-128 476.673-128c251.392 0 456.761 194.674 474.965 441.401L953.401 384 512 384zM476.673-57.400999999999954c-224.257 0-406.073 181.817-406.073 406.073 0 212.366 163.101 386.39 370.802 404.31l0-439.58 439.523 0C863.061 105.64300000000003 689.039-57.400999999999954 476.673-57.400999999999954z"  horiz-adv-x="1024" />

    
    <glyph glyph-name="water-drop" unicode="&#58899;" d="M511.974141-128c-201.857293 0-366.12396 164.26796-366.12396 366.125253 0 194.651798 332.011313 630.111677 346.119758 648.502303 9.523717 12.496162 30.435556 12.496162 40.008404 0 14.108444-18.391919 346.171475-453.850505 346.171475-648.502303C878.149818 36.267960000000016 713.883152-128 511.974141-128zM511.974141 829.234424c-72.308364-97.956202-315.735919-439.086545-315.735919-591.110465 0-174.092929 141.64299-315.735919 315.735919-315.735919 174.143354 0 315.787636 141.64299 315.787636 315.735919C827.761778 390.147879 584.331636 731.279515 511.974141 829.234424zM531.625374-32.10989900000004c-10.682182 0-20.608 6.852525-24.034263 17.586424-4.182626 13.251232 3.12501 27.410101 16.376242 31.644444 100.878222 32.147394 178.477253 112.115071 207.650909 213.899636 3.830949 13.452929 17.838545 21.263515 31.141495 17.282586 13.353374-3.829657 21.113535-17.786828 17.282586-31.140202-33.759677-118.05996-123.805737-210.827636-240.757657-248.062707C536.715636-31.756929000000014 534.195717-32.10989900000004 531.625374-32.10989900000004z"  horiz-adv-x="1024" />

    
    <glyph glyph-name="home" unicode="&#58888;" d="M950.624 390.624l-416 416c-12.512 12.512-32.736 12.512-45.248 0l-416-416c-12.512-12.512-12.512-32.736 0-45.248s32.736-12.512 45.248 0L512 738.752l256.448-256.448C768.416 481.504 768 480.8 768 480l0-480L256 0 256 320c0 17.696-14.336 32-32 32s-32-14.304-32-32l0-352c0-17.696 14.336-32 32-32l576 0c17.696 0 32 14.304 32 32L832 418.752l73.376-73.376C911.616 339.13599999999997 919.808 336 928 336s16.384 3.136 22.624 9.376C963.136 357.88800000000003 963.136 378.11199999999997 950.624 390.624z"  horiz-adv-x="1024" />

    
    <glyph glyph-name="other" unicode="&#58907;" d="M352 448l-256 0C43.072 448 0 491.072 0 544l0 256C0 852.928 43.072 896 96 896l256 0C404.928 896 448 852.928 448 800l0-256C448 491.072 404.928 448 352 448zM96 832C78.336 832 64 817.664 64 800l0-256C64 526.336 78.336 512 96 512l256 0C369.664 512 384 526.336 384 544l0 256C384 817.664 369.664 832 352 832L96 832zM352-64l-256 0C43.072-64 0-20.927999999999997 0 32l0 256C0 340.928 43.072 384 96 384l256 0C404.928 384 448 340.928 448 288l0-256C448-20.927999999999997 404.928-64 352-64zM96 320C78.336 320 64 305.6 64 288l0-256C64 14.399999999999977 78.336 0 96 0l256 0C369.664 0 384 14.399999999999977 384 32l0 256C384 305.6 369.664 320 352 320L96 320zM864-64l-256 0C555.072-64 512-20.927999999999997 512 32l0 256C512 340.928 555.072 384 608 384l256 0C916.928 384 960 340.928 960 288l0-256C960-20.927999999999997 916.928-64 864-64zM608 320C590.4 320 576 305.6 576 288l0-256C576 14.399999999999977 590.4 0 608 0l256 0c17.6 0 32 14.4 32 32l0 256C896 305.6 881.6 320 864 320L608 320zM864 448l-256 0C555.072 448 512 491.072 512 544l0 256C512 852.928 555.072 896 608 896l256 0C916.928 896 960 852.928 960 800l0-256C960 491.072 916.928 448 864 448zM608 832C590.4 832 576 817.664 576 800l0-256C576 526.336 590.4 512 608 512l256 0C881.6 512 896 526.336 896 544l0 256C896 817.664 881.6 832 864 832L608 832z"  horiz-adv-x="1024" />

    
    <glyph glyph-name="dehumidification" unicode="&#58890;" d="M540.138787-19.68947300000002c-77.195591-0.004095-151.189801 32.260554-203.787884 89.047974-9.60517 10.369939-8.984755 26.564203 1.385184 36.170397 10.368915 9.604146 26.563179 8.985779 36.170397-1.385184 43.938893-47.438197 106.212788-73.893878 170.779966-72.597764 124.85595 2.514421 224.388527 106.138051 221.873082 230.994001-0.524179 26.032857-12.93043 79.278998-69.056484 185.101723-6.622878 12.488154-1.869435 27.981124 10.618719 34.604002 12.488154 6.623902 27.9801 1.869435 34.604002-10.618719 49.53696-93.401117 74.074065-161.456337 75.012877-208.056052 1.492682-74.152896-25.97962-144.449187-77.35735-197.938989-51.378753-53.490826-120.510998-83.771376-194.664918-85.265081C543.860253-19.67104400000005 541.991842-19.68947300000002 540.138787-19.68947300000002zM288.091629 227.30836799999997c-13.896885 0-25.297778 11.121399-25.57932 25.079711-0.720746 35.811047 11.893334 84.423528 38.562987 148.617024 20.308864 48.883784 48.744549 106.444164 84.515669 171.083007 60.605122 109.515525 122.414218 203.191016 123.031561 204.12471 4.638779 7.013965 12.426727 11.302609 20.834067 11.472558 8.395054 0.175068 16.361141-3.802345 21.27839-10.623838 0.506775-0.702318 51.274327-71.268888 107.490474-160.721258 7.521763-11.968071 3.917009-27.768176-8.052085-35.288916-11.968071-7.521763-27.768176-3.915985-35.288916 8.052085-33.093916 52.659511-64.205781 98.583527-83.986371 127.155376-22.951258-36.190872-62.06709-99.454769-100.673076-169.236095-76.187161-137.71062-117.572729-241.981284-116.533585-293.602675 0.284613-14.132356-10.942236-25.819909-25.074592-26.105546C288.442788 227.31041500000003 288.266697 227.30836799999997 288.091629 227.30836799999997zM217.563963 30.95420200000001c-6.37717 0-12.763553 2.369043-17.726873 7.135796-10.194871 9.792523-10.520436 25.994977-0.728936 36.188825l589.304113 613.529986c9.792523 10.195895 25.994977 10.52146 36.189849 0.728936 10.194871-9.791499 10.520436-25.993953 0.728936-36.188825l-589.304113-613.529986C231.001168 33.58738200000005 224.288196 30.95420200000001 217.563963 30.95420200000001zM582.916705 109.19815100000005c-8.323389 0-15.162286 6.654616-15.346568 15.017932-0.187353 8.479004 6.534833 15.505255 15.014861 15.692608 0.360373 0.011262 43.32462 1.763985 71.708093 37.409179 30.066578 37.75829 18.843824 69.468047 18.721994 69.778254-3.10617 7.891351 0.773983 16.807512 8.666357 19.913682 7.891351 3.104122 16.807512-0.773983 19.913682-8.666357 0.762721-1.938029 18.204981-48.067826-23.274775-100.158111-37.569913-47.181226-92.727465-48.931902-95.057604-48.983092C583.147057 109.19917499999997 583.032393 109.19815100000005 582.916705 109.19815100000005z"  horiz-adv-x="1025" />

    
    <glyph glyph-name="water-level" unicode="&#58914;" d="M496.479003 812.222945c-181.996031 0-329.671395-51.498908-329.671395-115.03292 0-0.045025 0.086981-0.095167 0.086981-0.145309l0-702.694133c0 0-0.086981-0.024559-0.086981-0.074701 0-43.471071 147.676387-78.731132 329.671395-78.731132 182.1659 0 329.671395 35.259038 329.671395 78.731132L826.150398 697.190025C826.150398 760.723014 678.643879 812.222945 496.479003 812.222945zM496.479003 762.449331c126.487809 0 232.377488-29.810956 269.454942-70.77902-8.911974-46.074362-125.473713-82.617649-269.454942-82.617649-143.80829 0-260.459057 36.543288-269.37103 82.617649C264.201799 732.638375 370.163109 762.449331 496.479003 762.449331zM781.068643 35.318645999999944c0-38.660508-127.322827-69.975724-284.58964-69.975724-157.096944 0-284.591687 31.315216-284.591687 69.975724 0 0.024559 0.086981 0.074701 0.086981 0.074701L211.974297 146.609335l112.274086 0c20.50808 0 36.992519 13.249769 36.992519 29.614481 0 16.360619-16.48444 29.589922-36.992519 29.589922L211.973274 205.81373799999994l0 74.013691 112.274086 0c20.50808 0 36.992519 13.249769 36.992519 29.614481 0 16.340153-16.48444 29.589922-36.992519 29.589922L211.973274 339.031832l0 72.67623 112.274086 0c20.50808 0 36.992519 13.230326 36.992519 29.589922 0 16.364713-16.48444 29.619598-36.992519 29.619598L211.973274 470.917582 211.973274 640.027118c56.929594-34.43323 162.395624-57.892525 284.504706-57.892525 122.276904 0 227.743958 23.459295 284.58964 57.942667L781.06762 35.318645999999944zM462.839859 272.655076l-0.341784-0.607844 0.170892-0.024559c-2.01796-7.66047-3.196809-15.607466-3.196809-23.805172 0-59.83783 53.662177-108.321054 119.761618-108.321054 66.185398 0 119.764688 48.483224 119.764688 108.321054 0 12.472056-2.786463 24.291243-7.064906 35.473933l0.329505 0.146333-0.841158 1.410116c-3.865028 9.606799-9.079796 18.506493-15.632025 26.624381l-96.55508 164.420747-89.818655-157.146063C476.711797 305.99132199999997 467.384361 290.259012 462.839859 272.655076zM491.602949 268.05940799999996c3.451612 13.419637 10.43056 25.431206 20.012799 35.449373l67.618027 119.876228 72.665996-125.393895c4.876054-6.225795 8.91095-12.983709 11.770068-20.303418l0.679475-1.144056-0.25685-0.069585c3.198855-8.488325 5.300726-17.508769 5.300726-27.036773 0-45.638433-40.374546-82.622766-90.158393-82.622766s-90.158393 36.985356-90.158393 82.622766c0 6.271844 0.923022 12.326746 2.358721 18.161638l0 0.050142L491.602949 268.05940799999996z"  horiz-adv-x="1024" />

    
    <glyph glyph-name="alternator" unicode="&#58940;" d="M702.352861 522.0921020000001L702.352861 499.121947 683.843298 499.121947 683.843298 522.0921020000001 660.874167 522.0921020000001 660.874167 540.6026870000001 683.843298 540.6026870000001 683.843298 563.571818 702.352861 563.571818 702.352861 540.6026870000001 725.321992 540.6026870000001 725.321992 522.0921020000001ZM324.719104 540.6026870000001l64.582901 0 0-18.510586-64.582901 0 0 18.510586ZM768.691755 602.249723L286.347169 602.249723c-26.656103 0-48.340985-19.686365-48.340985-43.883463l0-350.080214c0-24.198122 21.685905-43.883463 48.340985-43.883463l482.34561 0c26.65508 0 48.340985 19.685341 48.339962 43.883463L817.03274 558.36626C817.03274 582.563358 795.347858 602.249723 768.691755 602.249723zM784.71059 191.10678199999995l-517.792936 0 0 384.763131 517.792936 0L784.71059 191.10678199999995zM387.815141 606.090191l-56.746422 0c-10.711969 0-19.427468 8.775874-19.427468 19.562545l0 23.375383c0 10.786671 8.715499 19.562545 19.427468 19.562545l56.746422 0c10.786671 0 19.562545-8.775874 19.562545-19.562545l0-23.375383C407.377686 614.8660649999999 398.601812 606.090191 387.815141 606.090191zM718.160895 606.090191l-56.881498 0c-10.711969 0-19.426445 8.775874-19.426445 19.562545l0 23.375383c0 10.786671 8.716522 19.562545 19.426445 19.562545l56.881498 0c10.712993 0 19.426445-8.775874 19.426445-19.562545l0-23.375383C737.588363 614.8660649999999 728.872864 606.090191 718.160895 606.090191zM612.580255 375.57205L462.741621 206.81350799999996 501.653863 306.122305 383.432321 287.20649000000003 488.008075 485.69003 602.716606 485.69003 488.008075 349.49411499999997Z"  horiz-adv-x="1024" />

    
    <glyph glyph-name="switch" unicode="&#58908;" d="M950.579315 620.954737c0-111.892393-90.697675-202.590068-202.576765-202.590068L273.48114 418.364669c-111.87909 0-202.575742 90.697675-202.575742 202.590068l0 7.167237c0 111.892393 90.697675 202.590068 202.575742 202.590068l474.52141 0c111.87909 0 202.576765-90.697675 202.576765-202.590068L950.579315 620.954737zM895.59912 628.121973c0 81.516572-66.079998 147.609873-147.59657 147.609873L273.48114 775.731846c-81.516572 0-147.59657-66.093301-147.59657-147.609873l0-7.167237c0-81.516572 66.079998-147.610896 147.59657-147.610896l474.52141 0c81.516572 0 147.59657 66.093301 147.59657 147.610896L895.59912 628.121973zM840.619948 583.304232c-7.597025 0-13.745049 6.148024-13.745049 13.745049l0 7.141654c0 58.617026-50.818409 102.818737-111.462604 102.818737l-58.563814 0c-7.597025 0-13.745049 6.148024-13.745049 13.745049 0 7.597025 6.148024 13.745049 13.745049 13.745049l58.563814 0c75.05951 0 138.951679-57.234539 138.951679-130.307811l0-7.141654C854.363973 589.451232 848.21595 583.304232 840.619948 583.304232zM601.869309 707.007625l-27.490098 0c-7.597025 0-13.745049 6.148024-13.745049 13.745049 0 7.597025 6.148024 13.745049 13.745049 13.745049l27.490098 0c7.597025 0 13.745049-6.148024 13.745049-13.745049C615.614357 713.155648 609.466334 707.007625 601.869309 707.007625zM286.098505 509.652791c-65.918315 0-119.54263 53.623291-119.54263 119.54263s53.624315 119.54263 119.54263 119.54263c65.919339 0 119.543653-53.623291 119.543653-119.54263S352.017844 509.652791 286.098505 509.652791zM286.098505 693.759903c-35.596729 0-64.563458-28.966729-64.563458-64.563458s28.966729-64.563458 64.563458-64.563458c35.597753 0 64.563458 28.965705 64.563458 64.563458S321.696258 693.759903 286.098505 693.759903zM950.579315 139.890306c0-111.892393-90.697675-202.602348-202.576765-202.602348L273.48114-62.712041c-111.87909 0-202.575742 90.710978-202.575742 202.602348l0 7.167237c0 111.892393 90.697675 202.576765 202.575742 202.576765l474.52141 0c111.87909 0 202.576765-90.684372 202.576765-202.576765L950.579315 139.890306zM895.59912 147.057543c0 81.502245-66.079998 147.595546-147.59657 147.595546L273.48114 294.653089c-81.516572 0-147.59657-66.093301-147.59657-147.595546l0-7.167237c0-81.530898 66.079998-147.624199 147.59657-147.624199l474.52141 0c81.516572 0 147.59657 66.093301 147.59657 147.624199L895.59912 147.057543zM180.864766 106.89686800000004c-7.597025 0-13.745049 6.148024-13.745049 13.745049l0 2.470261c0 4.912893-1.731434 9.771551-1.220804 14.550391 0.805342 7.570419 6.402827 13.072737 14.107299 12.214183 7.543813-0.777713 14.522762-7.54279 13.71742-15.114233-0.403183-3.811816 0.886183-7.704472 0.886183-11.650341l0-2.470261C194.608791 113.044892 188.461791 106.89686800000004 180.864766 106.89686800000004zM192.984804 169.84964200000002c-2.336208 0-4.684696 0.589424-6.859221 1.824555-6.563486 3.78521-8.832156 12.216229-5.03262 18.790972 24.052812 41.691541 68.88488 67.624167 116.979248 67.624167 7.597025 0 13.745049-6.148024 13.745049-13.745049s-6.147-13.745049-13.745049-13.745049c-38.308491 0-73.999364-20.644179-93.166913-53.879118C202.354196 172.31888000000004 197.737038 169.84964200000002 192.984804 169.84964200000002zM727.384977 28.588360999999963c-65.919339 0-119.54263 53.612035-119.54263 119.54263 0 65.907059 53.623291 119.54263 119.54263 119.54263s119.54263-53.635571 119.54263-119.54263C846.92863 82.19937300000004 793.304316 28.588360999999963 727.384977 28.588360999999963zM727.384977 212.695472c-35.596729 0-64.563458-28.966729-64.563458-64.564481 0-35.595706 28.966729-64.562435 64.563458-64.562435s64.563458 28.966729 64.563458 64.562435C791.948435 183.728744 762.981706 212.695472 727.384977 212.695472z"  horiz-adv-x="1024" />

    
    <glyph glyph-name="subtract" unicode="&#58947;" d="M117.734106 437.786746L906.212134 437.786746C925.995765 437.786746 959.972 413.720246 959.972 384.02688 959.972 354.33351400000004 925.995765 330.267014 906.212134 330.267014L117.734106 330.267014C97.950475 330.267014 63.97424 354.33351400000004 63.97424 384.02688 63.97424 413.720246 97.950475 437.786746 117.734106 437.786746Z"  horiz-adv-x="1024" />

    
    <glyph glyph-name="Air-conditioner-cabinet" unicode="&#58931;" d="M525.909333 515.768889l-27.818667 0c-0.455111 0-0.810667-0.369778-0.810667-0.810667l0-86.727111c0-0.455111 0.369778-0.824889 0.810667-0.824889l27.818667 0c0.455111 0 0.810667 0.369778 0.810667 0.810667l0 86.727111C526.734222 515.399111 526.364444 515.768889 525.909333 515.768889zM660.807111 839.111111L363.192889 839.111111c-36.792889 0-66.631111-29.838222-66.631111-66.631111l0-776.96c0-36.792889 29.838222-66.631111 66.631111-66.631111l297.614222 0c36.792889 0 66.631111 29.838222 66.631111 66.631111L727.438222 772.48C727.438222 809.272889 697.614222 839.111111 660.807111 839.111111zM363.192889 814.677333l297.614222 0c23.267556 0 42.197333-18.929778 42.197333-42.197333l0-189.696L320.995556 582.784 320.995556 772.48C320.995556 795.747556 339.925333 814.677333 363.192889 814.677333zM660.807111-46.677332999999976L363.192889-46.677332999999976c-23.267556 0-42.197333 18.929778-42.197333 42.197333L320.995556 566.058667l382.008889 0 0-570.538667C703.004444-27.74755600000003 684.074667-46.677332999999976 660.807111-46.677332999999976z"  horiz-adv-x="1024" />

    
    <glyph glyph-name="reader" unicode="&#58880;" d="M958.961728 639.249405c-0.145309 5.279237-2.179642 10.31902-5.726421 14.193257-1.946328 2.124384-48.586578 52.326762-128.189567 77.651544-29.65439 9.435906-60.257385 14.219863-90.958618 14.219863-91.620697 0-171.192987-42.990117-222.183312-79.441307-51.776224 37.217646-132.310422 81.118506-224.052892 81.118506-30.755468 0-61.314461-4.888334-90.827635-14.527878-79.341023-25.917276-124.922151-77.202313-126.823454-79.371722-3.408633-3.88754-5.335519-8.862855-5.426593-14.046924l-0.005117-516.350075 56.722886-68.00586c3.304256-8.525164 11.669784-14.168698 20.87033-13.95585 3.453658-0.210801 6.997368 0.491187 10.252505 2.01182 18.736736 4.736884 113.355721 27.662013 188.822506 27.662013 34.613332 0 60.686151-4.922103 75.401294-14.233166 6.957459-4.400217 10.780531-9.253758 12.366655-15.712867 0.198521-11.849886 9.654894-21.277606 21.63474-21.51092 0.864694-0.01535 8.79634-0.147356 20.958334-0.147356 23.050995 0 57.799404 0.454348 92.601025 2.616594l0.01228-0.00307c1.64036-0.38374 3.321652-0.578168 4.996804-0.578168 10.194176 0 18.953677 6.92983 21.303188 16.853853 2.164293 9.151427 7.617491 15.992229 17.159822 21.527292 15.608489 9.054213 40.138162 13.644765 72.90545 13.644765 73.477478 0 161.550373-22.827915 187.118702-29.921473 3.2623-1.611707 6.916527-2.387373 10.505261-2.220574 0.153496-0.00307 0.305969-0.004093 0.460488-0.004093 8.56098 0 16.564257 5.232165 20.026102 13.053294l60.099796 68.62189L958.986287 638.030647 958.961728 639.249405zM915.193899 629.481947l0-466.570321c-34.339086 12.852726-86.342484 29.965475-143.843082 40.681538-34.844599 6.490831-67.663052 9.782807-97.544617 9.782807-56.881498 0-103.968933-11.692297-140.03843-34.763758L533.767769 627.648183c67.016323 48.964178 134.453225 73.785493 200.464661 73.785493 26.122961-0.001023 52.054563-4.01136 77.073376-11.920494C864.715227 672.630676 901.32503 642.363326 915.193899 629.481947zM350.264409 165.30513900000005c66.595744 0 115.536386-16.642029 145.462976-49.465598l0.098237-0.099261c1.967818-1.880837 1.967818-1.880837 2.058892-1.947352l1.410116-1.074472c0.464581-0.327458 0.955768-0.63752 1.427512-0.908696 0.428765-0.255827 1.695618-0.920976 1.695618-0.920976l1.139963-0.503467c0.352017-0.14224 1.977028-0.710175 2.449795-0.835018l1.14508-0.291642c0.500397-0.11154 1.010003-0.197498 1.50119-0.265036 0.426719-0.065492 1.137916-0.141216 1.355881-0.162706l1.864464-0.097214c0.525979 0 1.059122 0.025583 1.511423 0.070608 0.38988 0.022513 1.90028 0.203638 2.211365 0.261966 0.505513 0.085958 0.998747 0.193405 1.622964 0.346901 0.50449 0.12689 2.158153 0.653893 2.586918 0.823761 0.38681 0.149403 0.76134 0.306992 1.179872 0.499373 0 0 1.107217 0.538259 1.576915 0.798179 0.331551 0.186242 0.660032 0.382717 0.966001 0.574075 0.38988 0.245593 0.762363 0.499373 1.366114 0.935302 0.125867 0.095167 0.765433 0.551562 0.766456 0.552585l2.913353 2.879584 0.121773 0.135076c29.227672 35.078936 77.631078 52.866045 143.864572 52.866045 37.431517 0 116.549459-6.237051 227.632417-47.752584l-29.848819-34.084283c-19.753903 5.225001-57.9529 14.614859-100.083439 21.196765-33.348526 5.209652-63.373353 7.851828-89.242534 7.851828-40.700981 0-72.703859-6.592139-95.118358-19.59222-14.243399-8.263198-24.866341-19.162432-31.592532-32.412201-31.352055-1.731434-62.11264-2.096754-82.503039-2.096754-1.455141 0-2.846838 0.002047-4.168949 0.00614-5.542226 12.304234-14.750959 22.588461-27.389814 30.584576-22.033829 13.939477-55.611575 21.00643-99.801007 21.00643-72.191182 0-155.541519-18.395976-189.325973-26.659173l-27.829835 33.368992C172.09145 137.93374500000004 263.941368 165.30513900000005 350.264409 165.30513900000005zM348.963787 209.17632200000003c-29.79356 0-62.469773-3.056616-97.117898-9.084912-57.380872-9.983375-109.142769-25.939789-143.290497-37.920658L108.555391 629.76745c13.44829 13.051247 49.104371 43.771923 102.065584 61.070914 24.931832 8.145517 50.873668 12.275581 77.103052 12.275581 66.047252 0 134.090974-25.379017 202.25647-75.43711l-0.001023-451.367061C453.563076 198.12154599999997 406.146137 209.17632200000003 348.963787 209.17632200000003z"  horiz-adv-x="1024" />

    
    <glyph glyph-name="asset-management" unicode="&#58894;" d="M788.26496 506.3424c0 12.52352-5.62176 26.1376-15.90784 36.3776l-0.04608 0c10.56256 10.24 16.37888 22.6048 16.37888 35.3024 0 12.69248-5.81632 24.45312-16.36864 35.67104 10.29632 11.09504 15.94368 22.90176 15.94368 35.4304 0 56.55552-114.61632 102.30272-256 102.30272-141.38368 0-256-45.89568-256-102.44608 0-12.69248 5.81632-24.86272 16.36864-36.08064-10.29632-11.09504-15.94368-22.56896-15.94368-35.0976 0-12.52352 5.64224-24.84224 15.92832-35.08224l-0.01536 0c-10.55744-10.24-16.33792-23.91552-16.33792-36.608 0-0.67072 0.08192-1.33632 0.11264-2.00704 16.8192 2.04288 34.14016 3.33824 51.87584 3.77856C328.68352 510.03904 329.472 512 330.61888 512l0.07168 0c3.03104-1.32608 6.18496-2.64704 9.43104-3.95264 0.6912 0 1.37216 0.03072 2.06336 0.03072 70.70208 0 135.72096-13.30688 187.4176-35.57376 1.03424-0.00512 2.05312-0.04608 3.09248-0.04608 82.14016 0 155.19232 19.06176 202.0352 39.54176l0.0256 0c1.80224 0 2.7392-4.77184 2.7392-7.6288 0-2.85696-0.97792-5.21216-2.77504-8.22272-9.96864-14.39744-36.97664-26.61376-36.97664-26.61376-27.33568-12.52864-66.92352-23.14752-112.78336-27.93472 13.69088-9.93792 25.37472-20.75136 34.816-32.24576 45.96224 6.69184 85.79072 18.48832 115.15904 33.69472 1.92512-3.1232 2.98496-6.1952 2.98496-9.15456 0-18.62144-39.808-41.56416-99.28192-55.0656 5.02784-11.76064 7.82336-23.9872 8.09472-36.55168 84.13696 16.768 141.96224 51.49184 141.96224 91.648 0 12.69248-5.81632 25.20576-16.36864 36.42368C782.6176 481.44384 788.26496 493.81376 788.26496 506.3424zM532.69504 715.4944c113.10592 0 204.8-38.28224 204.8-66.56 0-2.85696-0.97792-5.81632-2.77504-8.82688-9.96864-14.39744-36.97664-26.91584-36.97664-26.91584-37.28384-17.08544-97.31072-30.8224-165.0432-30.8224-67.47136 0-127.30368 13.62432-164.61824 30.6176 0 0-37.5552 19.54304-37.40672 27.11552-1.79712 3.01056-2.77504 5.96992-2.77504 8.82688C327.89504 677.21216 419.584 715.4944 532.69504 715.4944zM697.63584 541.25568C681.90208 533.1251199999999 661.44256 523.52 593.92 512s-121.53344 0-121.53344 0c-56.89344 7.68-104.43776 29.57312-104.43776 29.57312-24.89344 11.43296-39.6288 24.35584-39.6288 35.68128 0 2.75456 0.896 5.60128 2.56512 8.4992 46.86848-23.86944 119.61856-39.2192 201.37984-39.2192 82.5088 0 155.84768 15.63136 202.66496 39.87456 1.92512-3.1232 2.98496-6.1952 2.98496-9.15456C737.92 565.82656 722.944 552.76544 697.63584 541.25568zM373.8368 234.12224000000003c-52.82816-4.44928-91.53024 3.79904-91.53024 3.79904-56.89344 7.68-104.43776 29.57312-104.43776 29.57312-24.89344 11.43296-39.6288 24.35584-39.6288 35.68128 0 2.75456 0.896 5.60128 2.56512 8.4992 46.86848-23.86944 119.61856-39.2192 201.37984-39.2192 82.5088 0 155.84768 15.63136 202.66496 39.87456 1.92512-3.1232 2.98496-6.1952 2.98496-9.15456 0-0.58368-0.06656-1.1776-0.14336-1.77152 16.31744 2.2272 33.28 3.8912 50.78528 4.89984-0.6656 11.80672-6.32832 22.80448-16.23552 33.33632 10.29632 11.09504 15.94368 22.89152 15.94368 35.42016 0 56.55552-114.61632 102.2976-256 102.2976-141.38368 0-256-45.89568-256-102.4512 0-12.69248 5.81632-24.86272 16.36864-36.08064-10.29632-11.09504-15.94368-22.51776-15.94368-35.0464 0-12.52352 5.64224-24.79104 15.92832-35.03104 0 0 57.8048-70.26176 240.07168-70.26176 4.44928 0 8.8064 0.03584 13.10208 0.09728C356.992 211.05151999999998 363.29472 223.00160000000005 373.8368 234.12224000000003zM342.60992 441.41056c113.10592 0 204.8-38.28224 204.8-66.56 0-2.85696-0.97792-5.81632-2.77504-8.82688-9.96864-14.39744-36.97664-26.91584-36.97664-26.91584-37.28384-17.08544-97.31072-30.8224-165.0432-30.8224-67.47136 0-127.30368 13.62432-164.61824 30.6176 0 0-37.5552 19.54304-37.40672 27.11552-1.79712 3.01056-2.77504 5.96992-2.77504 8.82688C137.80992 403.12832 229.504 441.41056 342.60992 441.41056zM889.86624 148.38783999999998c10.29632 11.09504 15.94368 22.89152 15.94368 35.42016 0 56.55552-114.61632 102.2976-256 102.2976-141.38368 0-256-45.89568-256-102.4512 0-12.69248 5.81632-24.86272 16.36864-36.08064 0 0 12.65664-15.95392 38.25152-27.15136 46.86848-23.86944 119.61856-39.2192 201.37984-39.2192 82.5088 0 155.84768 15.63136 202.66496 39.87456C852.48 121.07776000000001 880.60928 136.11519999999996 889.86624 148.38783999999998zM650.24 250.16319999999996c113.10592 0 204.8-38.28224 204.8-66.56 0-2.85696-0.97792-5.81632-2.77504-8.82688-9.96864-14.39744-36.97664-26.91584-36.97664-26.91584-37.28384-17.08544-97.31072-30.8224-165.0432-30.8224-67.47136 0-127.30368 13.62432-164.61824 30.6176 0 0-37.5552 19.54304-37.40672 27.11552C446.41792 177.78688 445.44 180.74623999999994 445.44 183.60320000000002 445.44 211.88095999999996 537.12896 250.16319999999996 650.24 250.16319999999996z"  horiz-adv-x="1024" />

    
    <glyph glyph-name="water-leakage" unicode="&#58903;" d="M311.466667 345.6l0-2.56c0-17.066667 13.653333-30.72 30.72-30.72 17.066667 0 30.72 13.653333 30.72 30.72l0 2.56c0 17.066667-13.653333 30.72-30.72 30.72C325.12 376.32000000000005 311.466667 362.66666699999996 311.466667 345.6L311.466667 345.6zM467.626667 345.6l0-2.56c0-17.066667 13.653333-30.72 30.72-30.72 17.066667 0 30.72 13.653333 30.72 30.72l0 2.56c0 17.066667-13.653333 30.72-30.72 30.72C481.28 376.32000000000005 467.626667 362.66666699999996 467.626667 345.6L467.626667 345.6zM389.12 461.653333l0-2.56c0-17.066667 13.653333-30.72 30.72-30.72 17.066667 0 30.72 13.653333 30.72 30.72l0 2.56c0 17.066667-13.653333 30.72-30.72 30.72C402.773333 492.373333 389.12 478.72 389.12 461.653333L389.12 461.653333zM560.64 461.653333l0-2.56c0-17.066667 13.653333-30.72 30.72-30.72 17.066667 0 30.72 13.653333 30.72 30.72l0 2.56c0 17.066667-13.653333 30.72-30.72 30.72C574.293333 492.373333 560.64 478.72 560.64 461.653333L560.64 461.653333zM634.026667 345.6l0-2.56c0-17.066667 13.653333-30.72 30.72-30.72 17.066667 0 30.72 13.653333 30.72 30.72l0 2.56c0 17.066667-13.653333 30.72-30.72 30.72C648.533333 376.32000000000005 634.026667 362.66666699999996 634.026667 345.6L634.026667 345.6zM828.586667 145.91999999999996c-15.36 6.826667-34.133333-0.853333-40.106667-16.213333-49.493333-116.053333-159.573333-192-279.893333-192-123.733333 0-220.16 66.56-285.866667 197.12-7.68 15.36-26.453333 21.333333-40.96 13.653333-15.36-7.68-21.333333-26.453333-13.653333-40.96 75.946667-151.04 193.706667-230.4 340.48-230.4 145.066667 0 277.333333 89.6 336.213333 228.693333C850.773333 121.17333299999996 843.946667 139.94666700000005 828.586667 145.91999999999996L828.586667 145.91999999999996zM937.813333 256.853333L73.386667 256.853333c-17.066667 0-30.72-13.653333-30.72-30.72 0-17.066667 13.653333-30.72 30.72-30.72l864.426667 0c17.066667 0 30.72 13.653333 30.72 30.72C968.533333 243.20000000000005 954.88 256.853333 937.813333 256.853333L937.813333 256.853333zM181.76 314.026667c1.706667 0 3.413333 0 4.266667 0 15.36 0 28.16 11.093333 30.72 26.453333 8.533333 53.76 68.266667 132.266667 131.413333 215.04 52.053333 68.266667 110.08 143.36 148.48 218.453333 38.4-75.093333 96.426667-150.186667 148.48-218.453333 64-82.773333 123.733333-161.28 131.413333-215.04 2.56-15.36 15.36-26.453333 30.72-26.453333 1.706667 0 3.413333 0 4.266667 0 17.066667 2.56 28.16 17.92 25.6 34.986667-10.24 69.12-72.533333 150.186667-144.213333 243.2C628.906667 678.4 554.666667 774.826667 526.506667 861.866667c0 0 0 0.853333 0 0.853333 0 0.853333 0 0.853333-0.853333 1.706667 0 0.853333 0 0.853333-0.853333 1.706667 0 0 0 0.853333-0.853333 0.853333 0 0.853333-0.853333 0.853333-0.853333 1.706667 0 0-0.853333 0.853333-0.853333 0.853333 0 0.853333-0.853333 0.853333-0.853333 1.706667 0 0-0.853333 0.853333-0.853333 0.853333 0 0.853333-0.853333 0.853333-0.853333 0.853333 0 0-0.853333 0.853333-0.853333 0.853333 0 0-0.853333 0.853333-0.853333 0.853333 0 0-0.853333 0.853333-0.853333 0.853333 0 0-0.853333 0.853333-0.853333 0.853333 0 0-0.853333 0.853333-1.706667 0.853333 0 0-0.853333 0.853333-0.853333 0.853333C512.853333 878.933333 512 879.786667 512 879.786667c-0.853333 0-0.853333 0.853333-1.706667 0.853333 0 0-0.853333 0-1.706667 0.853333-0.853333 0-0.853333 0.853333-1.706667 0.853333 0 0-0.853333 0-0.853333 0 0 0 0 0 0 0-0.853333 0-0.853333 0-1.706667 0.853333 0 0-0.853333 0-0.853333 0-0.853333 0-0.853333 0-1.706667 0 0 0-0.853333 0-0.853333 0-0.853333 0-0.853333 0-1.706667 0-0.853333 0-0.853333 0-1.706667 0-0.853333 0-0.853333 0-1.706667 0-0.853333 0-0.853333 0-1.706667 0-0.853333 0-0.853333 0-1.706667 0-0.853333 0-0.853333 0-1.706667 0 0 0-0.853333 0-0.853333 0-0.853333 0-0.853333 0-1.706667-0.853333 0 0 0 0 0 0 0 0-0.853333 0-0.853333 0-0.853333 0-0.853333 0-1.706667-0.853333-0.853333 0-0.853333-0.853333-1.706667-0.853333 0 0-0.853333 0-0.853333-0.853333-0.853333 0-0.853333-0.853333-1.706667-0.853333 0 0-0.853333 0-0.853333-0.853333-0.853333 0-0.853333-0.853333-1.706667-0.853333 0 0-0.853333-0.853333-0.853333-0.853333-0.853333 0-0.853333-0.853333-1.706667-0.853333 0 0-0.853333-0.853333-0.853333-0.853333 0 0-0.853333-0.853333-0.853333-0.853333 0 0-0.853333-0.853333-0.853333-0.853333 0 0-0.853333-0.853333-0.853333-0.853333 0-0.853333-0.853333-0.853333-0.853333-1.706667 0 0-0.853333-0.853333-0.853333-0.853333 0-0.853333-0.853333-0.853333-0.853333-1.706667 0-0.853333-0.853333-0.853333-0.853333-1.706667 0-0.853333 0-0.853333-0.853333-1.706667 0-0.853333 0-0.853333-0.853333-1.706667 0 0 0-0.853333 0-0.853333-28.16-87.04-102.4-184.32-168.106667-269.653333-71.68-93.013333-133.12-174.08-144.213333-243.2C153.6 331.94666700000005 164.693333 316.58666700000003 181.76 314.026667L181.76 314.026667zM181.76 314.026667"  horiz-adv-x="1024" />

    
    <glyph glyph-name="jump" unicode="&#58945;" d="M339.2-64c-12.8 0-25.6 6.4-38.4 19.2-19.2 19.2-19.2 57.6 0 76.8L614.4 384 300.8 736c-19.2 19.2-19.2 57.6 0 76.8 19.2 19.2 51.2 19.2 70.4 0l345.6-390.4c19.2-19.2 19.2-57.6 0-76.8l-345.6-390.4C364.8-57.60000000000002 352-64 339.2-64z"  horiz-adv-x="1024" />

    
    <glyph glyph-name="ok" unicode="&#58884;" d="M511.769289-128c-281.723376 0-510.920345 229.200573-510.920345 510.927554 0 281.723376 229.200573 510.920345 510.920345 510.920345 281.726981 0 510.927554-229.196968 510.927554-510.920345C1022.700448 101.20417799999996 793.499875-128 511.769289-128zM511.769289 852.943558c-259.16777 0-470.012399-210.848233-470.012399-470.012399 0-259.171375 210.848233-470.023213 470.012399-470.023213 259.171375 0 470.023213 210.851838 470.023213 470.023213C981.792502 642.095325 770.940664 852.943558 511.769289 852.943558zM793.092526 510.146652l-317.209613-317.216823-0.00721-0.00721c-14.62852-14.62852-36.928181-16.910396-53.950328-6.860048-3.150647 1.870922-6.121051 4.156403-8.828301 6.860048-0.00721 0.003605-0.00721 0.003605-0.00721 0.003605L230.453262 375.56643099999997c-17.335769 17.335769-17.335769 45.446464 0 62.785838s45.446464 17.339374 62.782233 0l151.252696-151.252696 285.829311 285.832916c17.342979 17.339374 45.446464 17.339374 62.782233 0C810.428295 555.593116 810.428295 527.486026 793.092526 510.146652L793.092526 510.146652zM793.092526 510.146652"  horiz-adv-x="1024" />

    
    <glyph glyph-name="air-filter" unicode="&#58891;" d="M615.066377 15.667073999999957l0 44.182268c51.54598 18.409279 95.729272 47.864124 132.547829 84.683704 62.591547 58.909691 99.411127 147.275251 99.411127 239.321644l0 0 0 0 0 0 0 0c0 95.729272-36.818557 180.411953-99.411127 243.004523-36.818557 36.818557-81.000825 62.591547-132.547829 81.001849l0 44.182268c62.591547-18.409279 117.820406-51.54598 162.002674-95.729272 69.955258-69.955258 114.13855-165.68453 114.13855-272.459369l0 0 0 0 0 0 0 0c0-106.774839-44.182268-202.503087-114.13855-272.459369C732.886783 67.21305400000006 677.658947 34.07635200000004 615.066377 15.667073999999957L615.066377 15.667073999999957zM615.066377 185.033459c3.681856 0 7.363711 3.681856 11.045567 3.681856 14.727423 14.727423 25.77299 29.454846 33.136701 47.864124l0 0c7.363711 18.409279 11.045567 36.818557 11.045567 55.227836 0 22.091134-3.681856 40.500413-11.045567 55.227836l0 0c-7.363711 18.409279-18.409279 33.136701-29.454846 47.864124l0 0-3.681856 0c-3.681856 3.681856-7.363711 11.045567-11.045567 14.727423l0-51.54598c3.681856-7.363711 11.045567-14.727423 11.045567-22.091134l3.681856 0c3.681856-14.727423 7.363711-29.454846 7.363711-44.182268s-3.681856-29.454846-7.363711-40.500413l-3.681856 0c0-7.363711-7.363711-18.409279-11.045567-22.091134L615.066377 185.033459 615.066377 185.033459zM615.066377 542.1755089999999c3.681856 3.681856 7.363711 7.363711 11.045567 11.045567 7.363711 7.363711 7.363711 18.409279 0 25.77299-3.681856 3.681856-7.363711 3.681856-11.045567 3.681856L615.066377 542.1755089999999zM615.066377 752.0423069999999l0-44.182268c-18.409279 3.681856-36.818557 11.045567-55.227836 11.045567l0 44.182268C578.24782 763.087874 596.657098 759.406019 615.066377 752.0423069999999L615.066377 752.0423069999999zM615.066377 582.675922l0-40.500413c-3.681856-7.363711-7.363711-14.727423-11.045567-25.77299-7.363711-11.045567-11.045567-25.77299-11.045567-40.500413s3.681856-29.454846 11.045567-44.182268c3.681856-7.363711 7.363711-14.727423 11.045567-22.091134l0-51.54598c-3.681856 3.681856-7.363711 11.045567-11.045567 14.727423l0 0c-14.727423 11.045567-25.77299 29.454846-33.136701 47.864124-3.681856 14.727423-7.363711 29.454846-11.045567 44.182268l0 18.409279c3.681856 18.409279 7.363711 33.136701 11.045567 47.864124 7.363711 18.409279 18.409279 33.136701 33.136701 47.864124C607.702666 582.675922 611.384521 582.675922 615.066377 582.675922L615.066377 582.675922zM615.066377 229.215728l0-44.182268c-3.681856 0-7.363711 3.681856-11.045567 3.681856-7.363711 7.363711-7.363711 18.409279 0 25.77299C607.702666 218.170161 611.384521 221.85201600000005 615.066377 229.215728L615.066377 229.215728zM615.066377 59.84934199999998l0-44.182268c-18.409279-3.681856-36.818557-11.045567-55.227836-11.045567l0 44.182268C578.24782 52.48563100000001 596.657098 56.16748600000005 615.066377 59.84934199999998L615.066377 59.84934199999998zM559.838541 284.44356300000004l0 18.409279c0-3.681856 0-7.363711 0-11.045567C559.838541 291.807275 559.838541 288.12541899999997 559.838541 284.44356300000004zM453.063703 284.44356300000004c0 3.681856 0 7.363711 0 7.363711 0 3.681856 0 7.363711 0 11.045567L453.063703 284.44356300000004 453.063703 284.44356300000004zM559.838541 763.087874l0-44.182268c-14.727423 3.681856-33.136701 7.363711-51.54598 7.363711l0 0 0 0 0 0 0 0c-18.409279 0-36.818557-3.681856-55.227836-7.363711l0 44.182268c18.409279 3.681856 36.818557 3.681856 55.227836 3.681856l0 0 0 0 0 0 0 0C526.70184 766.76973 545.111119 766.76973 559.838541 763.087874L559.838541 763.087874zM559.838541 483.265818l0-18.409279c0 3.681856 0 7.363711 0 11.045567S559.838541 483.265818 559.838541 483.265818L559.838541 483.265818zM559.838541 302.852842l0-18.409279c0-14.727423-3.681856-33.136701-11.045567-47.864124-7.363711-18.409279-18.409279-33.136701-29.454846-47.864124-7.363711-3.681856-18.409279-3.681856-25.77299 0-3.681856 7.363711-3.681856 18.409279 0 25.77299 11.045567 11.045567 22.091134 22.091134 25.77299 36.818557 7.363711 11.045567 7.363711 25.77299 7.363711 40.500413s0 29.454846-7.363711 44.182268c-3.681856 14.727423-14.727423 25.77299-25.77299 36.818557-11.045567 11.045567-22.091134 29.454846-29.454846 47.864124-7.363711 14.727423-11.045567 29.454846-11.045567 44.182268l0 18.409279c0 18.409279 3.681856 33.136701 11.045567 47.864124 7.363711 18.409279 18.409279 33.136701 29.454846 47.864124 7.363711 7.363711 18.409279 7.363711 25.77299 0s7.363711-18.409279 0-25.77299c-11.045567-7.363711-18.409279-22.091134-25.77299-36.818557-3.681856-11.045567-7.363711-25.77299-7.363711-40.500413s3.681856-29.454846 7.363711-44.182268c7.363711-14.727423 14.727423-25.77299 25.77299-36.818557l0 0c11.045567-11.045567 22.091134-29.454846 29.454846-47.864124C556.156686 332.308711 559.838541 317.581288 559.838541 302.852842L559.838541 302.852842zM559.838541 48.80377499999997l0-44.182268c-14.727423-3.681856-33.136701-3.681856-51.54598-3.681856l0 0 0 0 0 0 0 0c-18.409279 0-36.818557 0-55.227836 3.681856l0 44.182268c18.409279-3.681856 36.818557-3.681856 55.227836-3.681856l0 0 0 0 0 0 0 0C526.70184 45.12191900000005 545.111119 45.12191900000005 559.838541 48.80377499999997zM397.835867 358.08170099999995c7.363711-7.363711 11.045567-14.727423 14.727423-22.091134 3.681856-14.727423 7.363711-29.454846 7.363711-44.182268s-3.681856-29.454846-7.363711-40.500413c-3.681856-7.363711-7.363711-18.409279-14.727423-22.091134l0-44.182268c3.681856 0 11.045567 3.681856 11.045567 3.681856 14.727423 14.727423 25.77299 29.454846 33.136701 47.864124 7.363711 14.727423 11.045567 33.136701 11.045567 47.864124l0 18.409279c0 14.727423-3.681856 29.454846-11.045567 44.182268-7.363711 18.409279-18.409279 36.818557-33.136701 47.864124l0 3.681856c-3.681856 3.681856-7.363711 7.363711-11.045567 11.045567L397.835867 358.08170099999995 397.835867 358.08170099999995zM397.835867 542.1755089999999c3.681856 3.681856 7.363711 7.363711 11.045567 11.045567 7.363711 7.363711 7.363711 18.409279 0 25.77299 0 3.681856-7.363711 3.681856-11.045567 3.681856L397.835867 542.1755089999999 397.835867 542.1755089999999zM453.063703 763.087874l0-44.182268c-18.409279 0-36.818557-7.363711-55.227836-11.045567l0 44.182268C416.245146 759.406019 434.654424 763.087874 453.063703 763.087874L453.063703 763.087874zM453.063703 483.265818l0-18.409279c0 3.681856 0 7.363711 0 11.045567S453.063703 479.583962 453.063703 483.265818L453.063703 483.265818zM453.063703 48.80377499999997l0-44.182268c-18.409279 3.681856-36.818557 7.363711-55.227836 11.045567l0 44.182268C416.245146 56.16748600000005 434.654424 48.80377499999997 453.063703 48.80377499999997zM386.7903 372.809123c3.681856-3.681856 7.363711-11.045567 11.045567-14.727423l0 51.54598c-3.681856 7.363711-7.363711 14.727423-11.045567 22.091134l0 0c-7.363711 14.727423-7.363711 29.454846-7.363711 44.182268s0 29.454846 7.363711 40.500413l0 0c3.681856 11.045567 7.363711 18.409279 11.045567 25.77299l0 40.500413c-3.681856 0-7.363711 0-11.045567-3.681856-14.727423-14.727423-25.77299-29.454846-33.136701-47.864124l0 0 0 0c-3.681856-18.409279-11.045567-36.818557-11.045567-55.227836s3.681856-36.818557 11.045567-55.227836l0 0C361.01731 402.263969 372.062877 387.536546 386.7903 372.809123L386.7903 372.809123 386.7903 372.809123zM397.835867 229.215728c-3.681856-7.363711-7.363711-11.045567-11.045567-14.727423-7.363711-7.363711-7.363711-18.409279 0-25.77299 3.681856 0 7.363711-3.681856 11.045567-3.681856L397.835867 229.215728 397.835867 229.215728zM397.835867 752.0423069999999l0-44.182268c-47.864124-18.409279-95.729272-44.182268-132.547829-81.001849-62.591547-62.591547-99.411127-147.275251-99.411127-243.004523l0 0 0 0 0 0 0 0c0-92.047416 36.818557-180.411953 99.411127-239.321644 36.818557-36.818557 84.683704-66.273403 132.547829-84.683704l0-44.182268c-62.591547 18.409279-117.820406 51.54598-162.002674 95.729272-69.955258 69.955258-114.13855 165.68453-114.13855 272.459369l0 0 0 0 0 0 0 0c0 106.774839 44.182268 202.503087 114.13855 272.459369C280.015462 700.4963270000001 335.243297 733.633029 397.835867 752.0423069999999z"  horiz-adv-x="1024" />

    
    <glyph glyph-name="setup" unicode="&#59022;" d="M517.146719 222.48544300000003c-84.630493 0-153.481603 68.548212-153.481603 152.801105 0 84.254939 68.852134 152.801105 153.481603 152.801105 84.628446 0 153.479557-68.546166 153.479557-152.801105C670.626275 291.03365499999995 601.775164 222.48544300000003 517.146719 222.48544300000003zM517.146719 468.017532c-51.359738 0-93.142353-41.59842-93.142353-92.729961 0-51.130518 41.783639-92.727914 93.142353-92.727914 51.358715 0 93.142353 41.597397 93.142353 92.727914C610.288049 426.419112 568.505433 468.017532 517.146719 468.017532zM635.798049-74.54760099999999L390.946458-74.54760099999999 390.946458 35.36060199999997 284.560476 97.166249l-96.259344-60.074214L55.050292 248.72403699999995l102.240569 63.807235 0.633427 140.628878L52.033585 519.2421939999999l133.25084 211.629955 106.995873-66.771753 95.650477 53.011354L387.930775 842.513832l250.885004 0 0-121.893164 101.341083-52.969399 101.302197 63.22088 133.251863-211.629955-97.022731-60.550051 0.798179-151.798265 93.209892-58.169841L838.442352 37.09203600000001l-90.3651 56.395428-112.280226-61.627592L635.797026-74.54760099999999zM451.286732-14.477480000000014l124.173091 0 0 81.815377 174.580131 95.825462 69.326948-43.266409 69.155033 109.835547-70.199829 43.811832-1.14815 218.281445 74.364685 46.410006-69.156056 109.834524-79.56615-49.65491-164.339906 85.898369 0 98.130971L448.269002 782.444734l0-100.642165-157.809165-87.461981-86.098937 53.730739-69.156056-109.834524 83.207074-51.92665-0.932232-207.113081-79.259158-49.464575 69.156056-109.835547 76.06542 47.471175 167.843706-97.507778L451.285708-14.477480000000014z"  horiz-adv-x="1024" />

    
    <glyph glyph-name="electric-quantity" unicode="&#58892;" d="M799.687188 703.42196L638.889969 703.42196 638.889969 801.778058c0 16.954137-13.745049 30.699186-30.699186 30.699186l-192.381565 0c-16.954137 0-30.699186-13.745049-30.699186-30.699186l0-98.356099L224.312812 703.42196c-16.954137 0-30.699186-13.745049-30.699186-30.699186l0-706.152908c0-16.954137 13.745049-30.699186 30.699186-30.699186l575.374376 0c16.954137 0 30.699186 13.745049 30.699186 30.699186l0 706.152908C830.386374 689.676911 816.641325 703.42196 799.687188 703.42196zM446.508403 771.078873l130.983193 0 0-67.656913-130.983193 0L446.508403 771.078873zM768.988002-2.730948000000012L255.011998-2.730948000000012l0 644.754536 160.797219 0 192.381565 0L768.988002 642.023588 768.988002-2.730948000000012zM674.17459 191.74430099999995L349.82541 191.74430099999995c-16.954137 0-30.699186-13.745049-30.699186-30.699186s13.745049-30.699186 30.699186-30.699186l324.349179 0c16.954137 0 30.699186 13.745049 30.699186 30.699186S691.12975 191.74430099999995 674.17459 191.74430099999995zM674.17459 319.22164799999996L349.82541 319.22164799999996c-16.954137 0-30.699186-13.745049-30.699186-30.699186s13.745049-30.699186 30.699186-30.699186l324.349179 0c16.954137 0 30.699186 13.745049 30.699186 30.699186S691.12975 319.22164799999996 674.17459 319.22164799999996zM319.126224 416.000831c0-16.954137 13.745049-30.699186 30.699186-30.699186l324.349179 0c16.954137 0 30.699186 13.745049 30.699186 30.699186s-13.745049 30.699186-30.699186 30.699186L349.82541 446.700017C332.87025 446.700017 319.126224 432.955992 319.126224 416.000831z"  horiz-adv-x="1024" />

    
    <glyph glyph-name="password" unicode="&#59077;" d="M500.363636 290.909091l23.272727 0C542.906182 290.909091 558.545455 275.269818 558.545455 256l0-162.909091c0-19.269818-15.639273-34.909091-34.932364-34.909091l-23.272727 0c-19.293091 0-34.909091 15.639273-34.909091 34.909091l0 162.909091C465.454545 275.269818 481.070545 290.909091 500.363636 290.909091zM884.363636 407.272727l0-419.746909C884.363636-37.678544999999986 863.511273-58.18181800000002 837.818182-58.18181800000002L186.181818-58.18181800000002c-25.669818 0-46.545455 20.503273-46.545455 45.707636L139.636364 407.272727 884.363636 407.272727M954.181818 477.090909L69.818182 477.090909l0-489.565091C69.818182-76.28800000000001 121.902545-128 186.181818-128l651.636364 0c64.279273 0 116.363636 51.712 116.363636 115.525818L954.181818 477.090909 954.181818 477.090909zM861.090909 477.090909l-69.818182 0 0 69.818182c0 156.997818-131.095273 279.272727-279.272727 279.272727-151.831273 0-279.272727-127.418182-279.272727-279.272727l0-69.818182L162.909091 477.090909l0 69.818182C162.909091 737.256727 321.652364 896 512 896c187.950545 0 349.090909-152.273455 349.090909-349.090909L861.090909 477.090909z"  horiz-adv-x="1024" />

    
    <glyph glyph-name="refrigeration" unicode="&#59012;" d="M956.509091 640c-9.309091 16.290909-30.254545 23.272727-48.872727 13.963636L805.236364 593.454545V695.854545c0 11.636364-9.309091 20.945455-20.945455 20.945455s-20.945455-9.309091-20.945454-20.945455V570.181818l-216.436364-123.345454V693.527273L656.290909 756.363636c9.309091 6.981818 13.963636 18.618182 6.981818 27.927273-6.981818 9.309091-18.618182 13.963636-27.927272 6.981818l-88.436364-51.2V861.090909C546.909091 879.709091 530.618182 896 512 896s-34.909091-16.290909-34.909091-34.909091v-118.690909l-88.436364 51.2c-9.309091 6.981818-23.272727 2.327273-27.927272-6.981818-6.981818-9.309091-2.327273-23.272727 6.981818-27.927273l109.381818-62.836364v-249.018181L260.654545 570.181818V695.854545c0 11.636364-9.309091 20.945455-20.945454 20.945455s-20.945455-9.309091-20.945455-20.945455V593.454545L116.363636 653.963636c-16.290909 9.309091-37.236364 2.327273-48.872727-13.963636-9.309091-16.290909-4.654545-39.563636 13.963636-48.872727l102.4-58.181818-88.436363-51.2c-9.309091-4.654545-13.963636-18.618182-6.981818-27.927273 4.654545-6.981818 11.636364-11.636364 18.618181-11.636364 4.654545 0 6.981818 0 11.636364 2.327273l109.381818 62.836364L442.181818 384l-216.436363-123.345455L116.363636 323.490909c-9.309091 6.981818-23.272727 2.327273-27.927272-6.981818-6.981818-9.309091-2.327273-23.272727 6.981818-27.927273l88.436363-51.2-102.4-58.181818c-16.290909-9.309091-23.272727-30.254545-13.963636-48.872727 6.981818-11.636364 18.618182-18.618182 30.254546-18.618182 6.981818 0 11.636364 2.327273 18.618181 4.654545L218.763636 174.54545499999995v-102.4c0-11.636364 9.309091-20.945455 20.945455-20.945455s20.945455 9.309091 20.945454 20.945455V197.81818199999998l216.436364 123.345454v-249.018181L367.709091 11.636363999999958c-9.309091-6.981818-13.963636-18.618182-6.981818-27.927273 4.654545-6.981818 11.636364-11.636364 18.618182-11.636364 4.654545 0 6.981818 0 11.636363 2.327273l88.436364 51.2v-118.690909c0-18.618182 16.290909-34.909091 34.909091-34.909091s34.909091 16.290909 34.909091 34.909091v118.690909l88.436363-51.2c2.327273-2.327273 6.981818-2.327273 11.636364-2.327273 6.981818 0 13.963636 4.654545 18.618182 11.636364 6.981818 9.309091 2.327273 23.272727-6.981818 27.927273l-109.381819 62.836363V323.490909l216.436364-123.345454v-125.672728c0-11.636364 9.309091-20.945455 20.945455-20.945454s20.945455 9.309091 20.945454 20.945454V174.54545499999995l102.4-58.181819c4.654545-2.327273 11.636364-4.654545 18.618182-4.654545 11.636364 0 23.272727 6.981818 30.254545 18.618182 9.309091 16.290909 4.654545 39.563636-13.963636 48.872727l-102.4 58.181818 88.436364 51.2c9.309091 6.981818 13.963636 18.618182 6.981818 27.927273-6.981818 9.309091-18.618182 13.963636-27.927273 6.981818l-109.381818-62.836364L581.818182 384l216.436363 123.345455 109.381819-62.836364c2.327273-2.327273 6.981818-2.327273 11.636363-2.327273 6.981818 0 13.963636 4.654545 18.618182 11.636364 6.981818 9.309091 2.327273 23.272727-6.981818 27.927273l-88.436364 51.2 102.4 58.181818c13.963636 9.309091 20.945455 32.581818 11.636364 48.872727m0 0z"  horiz-adv-x="1024" />

    
    <glyph glyph-name="heating" unicode="&#59015;" d="M512 141.96363599999995c-132.654545 0-242.036364 109.381818-242.036364 242.036364S379.345455 626.036364 512 626.036364 754.036364 516.654545 754.036364 384 644.654545 141.96363599999995 512 141.96363599999995z m0 430.545455c-104.727273 0-188.509091-83.781818-188.509091-188.509091s83.781818-188.509091 188.509091-188.509091 188.509091 83.781818 188.509091 188.509091-83.781818 188.509091-188.509091 188.509091zM512 679.563636c-13.963636 0-27.927273 11.636364-27.927273 27.927273V868.072727c0 16.290909 13.963636 27.927273 27.927273 27.927273s27.927273-11.636364 27.927273-27.927273v-160.581818c0-13.963636-13.963636-27.927273-27.927273-27.927273zM512-128c-13.963636 0-27.927273 11.636364-27.927273 27.927273v160.581818c0 13.963636 11.636364 27.927273 27.927273 27.927273 13.963636 0 27.927273-11.636364 27.927273-27.927273v-160.581818c0-16.290909-13.963636-27.927273-27.927273-27.927273zM188.509091 356.072727H27.927273C11.636364 356.072727 0 370.03636400000005 0 384s11.636364 27.927273 27.927273 27.927273h160.581818c13.963636 0 27.927273-11.636364 27.927273-27.927273 0-13.963636-13.963636-27.927273-27.927273-27.927273zM996.072727 356.072727h-160.581818c-13.963636 0-27.927273 11.636364-27.927273 27.927273 0 13.963636 11.636364 27.927273 27.927273 27.927273h160.581818c13.963636 0 27.927273-11.636364 27.927273-27.927273 0-13.963636-11.636364-27.927273-27.927273-27.927273zM242.036364 626.036364c-6.981818 0-13.963636 2.327273-18.618182 6.981818L116.363636 742.4c-11.636364 9.309091-11.636364 27.927273 0 37.236364 11.636364 11.636364 27.927273 11.636364 37.236364 0l107.054545-107.054546c11.636364-11.636364 11.636364-27.927273 0-37.236363-4.654545-6.981818-11.636364-9.309091-18.618181-9.309091zM134.981818-20.945455000000038c-6.981818 0-13.963636 2.327273-18.618182 6.981819-11.636364 11.636364-11.636364 27.927273 0 37.236363l107.054546 107.054546c11.636364 11.636364 27.927273 11.636364 37.236363 0 11.636364-11.636364 11.636364-27.927273 0-37.236364L153.6-11.636363999999958c-4.654545-6.981818-11.636364-9.309091-18.618182-9.309091zM889.018182-20.945455000000038c-6.981818 0-13.963636 2.327273-18.618182 6.981819l-107.054545 107.054545c-11.636364 11.636364-11.636364 27.927273 0 37.236364 11.636364 11.636364 27.927273 11.636364 37.236363 0l107.054546-107.054546c11.636364-11.636364 11.636364-27.927273 0-37.236363-4.654545-4.654545-11.636364-6.981818-18.618182-6.981819zM781.963636 626.036364c-6.981818 0-13.963636 2.327273-18.618181 6.981818-11.636364 11.636364-11.636364 27.927273 0 37.236363L870.4 779.636364c11.636364 11.636364 27.927273 11.636364 37.236364 0 11.636364-11.636364 11.636364-27.927273 0-37.236364l-107.054546-107.054545c-4.654545-6.981818-11.636364-9.309091-18.618182-9.309091z"  horiz-adv-x="1024" />

    
    <glyph glyph-name="determine" unicode="&#58893;" d="M959.0784 662.3744l-8.448 8.448a25.4976 25.4976 0 0 1-36.5568 0.256l-502.528-502.528L109.568 470.4768a26.0608 26.0608 0 0 1-36.5056-0.3072l-8.448-8.448a25.5488 25.5488 0 0 1-0.3072-36.5056l328.3456-328.3456a25.2416 25.2416 0 0 1 16.384-7.2704 25.344 25.344 0 0 1 21.504 7.3728L959.3344 625.7664a25.7536 25.7536 0 0 1-0.256 36.608z"  horiz-adv-x="1024" />

    
    <glyph glyph-name="weChat" unicode="&#58933;" d="M1247.656456 245.19120099999998c0 169.213407-156.970778 313.395706-349.655722 328.367584a19.026761 19.026761 0 0 1-0.077978 6.472218C859.245405 760.1614030000001 665.546741 896 447.284839 896 200.794711 896 0 723.979366 0 512.579575a365.719299 365.719299 0 0 1 167.653836-296.162451l-38.287457-115.018329a19.494632 19.494632 0 0 1 18.480911-25.654936 19.806546 19.806546 0 0 1 8.811574 2.10542l143.558471 71.818225 17.701126-3.587012a607.452737 607.452737 0 0 1 129.444357-16.921341c13.8022 0 27.838335 0.623828 41.640534 1.793506a108.000262 108.000262 0 0 1 15.36177 2.573291 377.416078 377.416078 0 0 1 360.494737-218.339879 526.355067 526.355067 0 0 1 125.62341 20.196439l110.72951-60.511339a19.494632 19.494632 0 0 1 27.994292 22.613774l-28.306206 94.042105A335.307673 335.307673 0 0 1 1247.656456 245.19120099999998z m-762.006181-75.327258a447.596754 447.596754 0 0 0-38.287457-1.637549 575.091648 575.091648 0 0 0-121.568526 16.141555l-24.485258 4.912647a18.792825 18.792825 0 0 1-12.476564-1.637549l-107.61037-53.883163 27.916313 83.982875a19.494632 19.494632 0 0 1-7.329981 22.145902A329.459283 329.459283 0 0 0 38.989264 512.579575C38.989264 702.457292 222.160828 857.010736 447.362818 857.010736c199.001205 0 375.232679-121.100655 411.648652-282.204295-208.748521-2.729248-377.650013-149.406861-377.650014-329.61524a491.654622 491.654622 0 0 1 10.527102-74.859387l-6.238283-0.54585z m581.018016-155.489186a19.494632 19.494632 0 0 1-6.940089-21.132181l18.402933-61.369102-75.639173 41.406598a19.338675 19.338675 0 0 1-9.357423 2.417335 17.935062 17.935062 0 0 1-4.75669-0.623828 516.217859 516.217859 0 0 0-123.51799-20.820268c-189.955695 0-344.43116 130.536057-344.43116 291.015869s154.475465 290.859911 344.43116 290.859911c186.368683 0 343.807332-133.187327 343.807333-290.859911a304.740089 304.740089 0 0 0-141.998901-230.894423zM244.462687 640.152448a58.639853 52.47955 0 1 1 117.279707 0 58.639853 52.47955 0 1 1-117.279707 0ZM543.666301 640.152448a58.639853 52.47955 0 1 1 117.279706 0 58.639853 52.47955 0 1 1-117.279706 0ZM703.600263 339.311285a48.346688 40.78277 0 1 1 96.693375 0 48.346688 40.78277 0 1 1-96.693375 0ZM939.329354 339.311285a48.346688 40.78277 0 1 1 96.693376 0 48.346688 40.78277 0 1 1-96.693376 0Z"  horiz-adv-x="1248" />

    
    <glyph glyph-name="ringing" unicode="&#58960;" d="M69.917767 122.26083700000004v-4.357953c0.500093 3.929302 1.476465 5.405767 2.500466 6.429767a18.360558 18.360558 0 0 1-2.500466-2.976744 12.04986 12.04986 0 0 1-1.57172-3.453023 15.312372 15.312372 0 0 1-0.500094-4.096h11.906977l-10.168558 6.191628C62.106791 106.80558099999996 59.534884 95.279628 59.534884 81.01507000000004c0-47.246884 38.221395-85.706419 84.587163-85.706419h208.467348c17.574698-69.346233 82.967814-120.927256 157.02921-120.927256 76.252279 0 139.787907 49.93786 157.100651 120.927256h208.372093c46.389581 0 84.610977 38.459535 84.610977 85.706419 0 11.740279-2.190884 19.837023-8.358698 35.244651a11.668837 11.668837 0 0 1-1.500279 4.977116c-1.071628 2.143256-1.524093 2.619535-4.048372 5.143814l-89.921489 106.567442v176.00893c0 161.506233-109.972837 301.413209-261.096186 339.968 6.429767 12.930977 9.811349 26.719256 9.811349 41.269582C604.588651 841.894698 561.842605 884.093023 509.618605 884.093023s-94.970047-42.198326-94.970047-93.898418c0-14.597953 3.381581-28.43386 9.858977-41.388652A350.160372 350.160372 0 0 1 163.363721 408.957023v-176.00893L69.917767 122.26083700000004z m824.034233-35.316093c0.309581-1.095442 0.404837-2.667163 0.404837-5.953488 0-11.621209-8.97786-20.861023-19.241674-20.861023H144.122047c-10.263814 0-19.241674 9.239814-19.241675 20.884837 0 3.262512 0.095256 4.834233 0.404837 5.929674L221.660279 198.25116300000002c3.953116 3.834047 7.04893 13.050047 7.04893 20.075163v188.582697c0 157.600744 125.690047 285.291163 280.909396 285.291163s280.909395-127.690419 280.909395-285.291163v-188.582697c0-8.858791 1.333581-14.336 7.334698-20.408559l96.089302-110.973023z"  horiz-adv-x="1024" />

    
    <glyph glyph-name="data-table" unicode="&#58943;" d="M886.64576 714.8390400000001h-99.24608v19.75808a21.5296 21.5296 0 0 1-21.71392 21.53984h-115.59424c-6.4 25.90208-19.7888 48.64-37.71904 66.85696-25.63072 25.66144-61.50656 41.80992-100.42368 41.80992-39.26016 0-74.40896-16.14848-100.51072-41.80992-18.14016-18.21184-31.4368-40.95488-37.62688-66.85696H258.21184c-12.33408 0-21.57056-9.72288-21.57056-21.53984v-19.75808H137.28768c-20.06016 0-35.96288-16.62464-35.96288-36.06528v-739.42528c0-19.98848 15.90272-36.14208 35.96288-36.14208h749.35808c19.92192 0 36.03456 16.14848 36.03456 36.14208V678.76864c0 19.44576-16.11776 36.0704-36.03456 36.0704zM442.17344 792.20736c17.69472 18.27328 42.5984 29.02528 69.77024 29.02528s51.97824-10.752 69.67296-29.02528a96.64 96.64 0 0 0 23.6032-36.0704h-186.0608a93.68064 93.68064 0 0 0 23.0144 36.0704zM279.72096 712.85248h464.39424v-68.5056H279.72096v68.5056z m571.0592-737.36704H173.60384V642.3552h63.03744v-19.51744c0-12.29824 9.2416-21.504 21.57056-21.504h507.47392c12.22656 0 21.71392 9.21088 21.71392 21.504V642.3552h63.38048v-666.86976z m-550.5536 358.272c-19.92192 0-36.20864-15.90272-36.20864-36.44416 0-19.6864 16.28672-35.82976 36.20864-35.82976 19.96288 0 36.11136 16.14336 36.11136 35.82976 0 20.53632-16.14848 36.44416-36.11136 36.44416z m0-152.73984c-19.92192 0-36.20864-15.90272-36.20864-35.89632 0-19.9936 16.28672-35.8656 36.20864-35.8656 19.96288 0 36.11136 15.872 36.11136 35.8656s-16.14848 35.89632-36.11136 35.89632z m421.888 291.1488H408.33536c-12.23168 0-21.7088-9.99424-21.7088-21.78048 0-12.08832 9.47712-21.77536 21.7088-21.77536h313.7792c11.76064 0 21.50912 9.69216 21.50912 21.77536 0 11.78624-9.74848 21.78048-21.50912 21.78048z m-421.888 14.3616c-19.92192 0-36.20864-16.42496-36.20864-36.13696 0-20.02944 16.28672-36.61824 36.20864-36.61824 19.96288 0 36.11136 16.5888 36.11136 36.61824 0 19.712-16.14848 36.13696-36.11136 36.13696z m421.888-319.62112H408.33536c-12.23168 0-21.7088-9.96352-21.7088-21.78048a21.51424 21.51424 0 0 1 21.7088-21.53984h313.7792c11.76064 0 21.50912 9.71264 21.50912 21.53984 0 11.81184-9.74848 21.78048-21.50912 21.78048z m0 152.49408H408.33536c-12.23168 0-21.7088-9.72288-21.7088-22.08768 0-11.7504 9.47712-21.23264 21.7088-21.23264h313.7792c11.76064 0 21.50912 9.48736 21.50912 21.23264 0 12.35968-9.74848 22.08768-21.50912 22.08768z"  horiz-adv-x="1024" />

    
    <glyph glyph-name="environment" unicode="&#58889;" d="M662.5 14.200000000000045l-244.3 0.6V506.3H283.5V789.4h-220v-810.9h885.6v36.3H722.9m-487.6 2.4H109.4V117.39999999999998h125.9v-100.2z m0 154.5H109.4V271.79999999999995h125.9v-100.1z m0 154.4H109.4V426.3h125.9v-100.2z m0 154.5H109.4V580.7h125.9v-100.1z m0 154.4H109.4V735.1h125.9V635z m146.5-617.8l-99.3-0.3-0.7 445.9 99.3 0.3 0.7-445.9zM673.3-10.600000000000023h-1.1c-10.7 0.6-18.9 9.7-18.3 20.4l12.6 229.1c-18-5.8-42.3-11.6-66.8-11.6-20.3 0-41.3 4.6-62.5 13.8-37.8 16.3-61.7 49.5-67.3 93.7-9.2 71.4 35.3 110.9 59.2 132.1 4.1 3.6 8.8 7.8 11 10.4-0.9 1.4-2.2 3.3-3.4 5.1-10.1 14.7-30.9 45-22.8 84.1 10.3 49.6 36.2 69.2 57.5 80.8 16.8 9.1 32.9 11.9 43.6 12.4-2.8 33.9 5.4 62.8 24 84.1 19.4 22.3 49.6 35 82.9 35 36.5 0 71.2-15.8 90.5-41.2 16.3-21.4 21.6-48 15.7-77.5 25.2-3.5 71.4-20.6 86-74.2 15-55.1-7-92.8-18.8-108.1 19.4-13.7 67-54.6 65-125.8-2.4-86.3-68.8-126.9-112.9-127.2-35.4 0-62.7 12.1-63.8 12.6l-9.9 3.4 3.1-231c0.1-10.7-8.4-19.5-19.1-19.6h-0.3c-10.6 0-19.2 8.5-19.4 19.1l-3.5 258.5c-0.1 6.3 2.9 12.3 8 16 5.1 3.7 11.7 4.7 17.7 2.6l37.6-13c1.8-0.7 22.8-9.8 49.4-9.8 19.1 0.1 72.4 21.5 74.3 89.5 1.8 63.5-51.1 94.8-53.4 96.1l-13.2 7.4c-5.3 3-8.9 8.2-9.7 14.3-0.8 6 1.2 12.1 5.5 16.4l10.8 10.8c1.1 1.1 28.2 29.1 15 77.7-11.9 43.9-57.4 46.4-59.3 46.4l-14.5 0.3c-6 0.2-11.5 3.1-15.1 7.8-3.5 4.8-4.7 11-3.1 16.7l3.9 14.1c5.9 21.4 3.5 39.2-6.9 53-12 15.7-35.4 25.9-59.7 25.9-22.1 0-41.6-7.9-53.7-21.7-12.6-14.5-17.4-36.1-13.8-62.5l2-14.5c0.8-5.9-1.1-11.9-5.3-16.1-4.1-4.3-10-6.4-15.9-5.8l-14.6 1.5c-0.4 0-14.5 1.2-30.8-7.7-14.5-7.8-30.6-19.2-38-54.5-4.8-22.8 8.7-42.4 16.7-54.1 4.8-7 8.8-12.8 10.3-20.8 4-20.9-10.8-34.1-23.9-45.6-22.5-20-53.2-47.2-46.6-98.4 3.9-30.9 18.8-52.1 44.2-63 16.3-7.1 32.2-10.6 47.1-10.6 38.8 0 79.1 18.9 79.5 19.1 6.2 3 13.4 2.4 19.1-1.4 5.7-3.8 8.9-10.3 8.6-17.1l-14.3-258.9c-0.4-10.5-8.9-18.5-19.1-18.5z"  horiz-adv-x="1024" />

    
    <glyph glyph-name="plus" unicode="&#58882;" d="M977.454545 421.236364h-432.872727V849.454545h-69.818182v-428.218181H46.545455v-69.818182h428.218181V-81.45454500000005h69.818182v432.872727H977.454545z"  horiz-adv-x="1024" />

    
    <glyph glyph-name="cloudHost" unicode="&#58901;" d="M467.2 166.39999999999998H928v-92.8H467.2v92.8z m0 124.8H928v-92.8H467.2v92.8z m25.6 76.8h409.6l16-44.8H476.8l16 44.8z m-25.6 28.8l-32-76.8v-275.2H960V320l-32 76.8H467.2zM851.2 105.60000000000002h32v32h-32v-32z m0 121.6h32v32h-32v-32zM256 457.6c-108.8-12.8-192-105.6-192-214.4 0-118.4 108.8-137.6 153.6-137.6v32-32h185.6v32H217.6c-16 0-124.8 6.4-124.8 108.8 0 102.4 83.2 185.6 185.6 185.6 0 12.8 3.2 22.4 6.4 32 25.6 115.2 128 198.4 249.6 198.4 134.4 0 243.2-102.4 256-230.4h32c-12.8 147.2-134.4 262.4-284.8 262.4-140.8-3.2-259.2-102.4-281.6-236.8M313.6 444.8h16c16 96 99.2 166.4 198.4 169.6v16c-108.8-6.4-195.2-83.2-214.4-185.6"  horiz-adv-x="1024" />

    
    <glyph glyph-name="UPS" unicode="&#58898;" d="M512.247879 895.500244C229.617882 895.500244 0.499756 666.3841170000001 0.499756 383.75012200000003c0-282.631996 229.118126-511.750122 511.748123-511.750122 282.637993 0 511.756119 229.118126 511.756119 511.750122 0 282.633995-229.120125 511.750122-511.756119 511.750122z m0-993.322979c-265.964135 0-481.570858 215.608722-481.570858 481.572857 0 265.966134 215.606723 481.572857 481.570858 481.572857 265.97413 0 481.578854-215.606723 481.578854-481.572857 0-265.964135-215.606723-481.572857-481.578854-481.572857zM377.681585 514.946061h35.092865v117.968399c0 11.066596 9.177519 20.785851 20.515982 20.78585s20.785851-9.447387 20.785851-20.78585v-117.968399h116.34719v117.968399c0 11.066596 9.179518 20.785851 20.515982 20.78585 11.338464 0 20.785851-9.447387 20.785851-20.78585v-117.968399h35.092865c17.8173 0 33.743524-7.018573 45.619725-18.896773 11.338464-11.338464 18.626905-27.534555 18.626904-45.351855 0-17.547432-7.288441-33.473655-18.626904-45.081987v-0.269869a65.7399 65.7399 0 0 0-33.203788-17.275564v-64.248629c0-20.246114-8.367914-38.603151-21.595455-52.10056-13.227541-12.957673-31.854446-21.595455-51.830692-21.595456h-0.539737c2.158946-3.238419 3.510286-7.018573 3.510286-11.336464 0-11.338464-9.177519-20.785851-20.515982-20.785851h-35.362733v-83.685138c0-11.068595-9.179518-20.515982-20.515982-20.515982-11.338464 0-20.515982 9.447387-20.515983 20.515982v83.685138H456.776964c-11.338464 0-20.785851 9.447387-20.78585 20.785851 0 4.317892 1.079473 8.098046 3.510286 11.338463h-0.269869c-20.246114 0-38.603151 8.637782-52.370428 21.595456l-0.809605 1.079473c-12.957673 12.957673-20.785851 31.31471-20.78585 51.021087v63.97876c-12.687805 2.428814-24.024269 8.639781-33.203788 17.277564v0.269868c-11.606333 11.608332-18.626905 27.534555-18.626904 45.081988 0 17.8173 7.288441 34.015391 18.626904 45.351855l0.809605 0.809605c11.876201 11.604334 27.532556 18.353039 44.81012 18.353038z"  horiz-adv-x="1024" />

    
    <glyph glyph-name="scanning" unicode="&#58979;" d="M39.78 495.11a27.77 27.77 0 0 1 27.78 27.78V828.44h305.55a27.78 27.78 0 1 1 0 55.56H39.78A27.77 27.77 0 0 1 12 856.22v-333.33a27.77 27.77 0 0 1 27.78-27.78zM373.11-60.440000000000055H67.56V245.11a27.78 27.78 0 1 1-55.56 0v-333.33A27.77 27.77 0 0 1 39.78-116h333.33a27.78 27.78 0 0 1 0 55.56zM984.22 884H650.89a27.78 27.78 0 1 1 0-55.56h305.55v-305.55a27.78 27.78 0 1 1 55.56 0V856.22A27.76 27.76 0 0 1 984.22 884zM984.22 272.89a27.76 27.76 0 0 1-27.78-27.78v-305.55H650.89a27.78 27.78 0 1 1 0-55.56h333.33a27.76 27.76 0 0 1 27.78 27.78V245.11a27.76 27.76 0 0 1-27.78 27.78zM984.22 411.78H39.78a27.78 27.78 0 0 1 0-55.56h944.44a27.78 27.78 0 0 1 0 55.56z"  horiz-adv-x="1024" />

    
    <glyph glyph-name="video" unicode="&#58887;" d="M412.606 247.053l223.859 111.93c20.596 10.299 20.596 39.737 0 50.035L412.606 520.946c-18.636 9.29-40.519-4.197-40.519-25.017V272.07000000000005c0-20.818 21.883-34.306 40.519-25.017zM876.051 719.79H147.949c-46.06 0-83.668-37.944-83.668-84.339v-502.845c0-46.619 37.329-84.395 83.668-84.395h728.102c46.061 0 83.668 37.943 83.668 84.395V635.45c0 46.563-37.328 84.34-83.668 84.34zM232.176 132.437c0-15.613-11.977-28.262-28.263-28.262h-55.405c-15.614 0-28.262 11.977-28.262 28.262v55.404c0 15.615 11.976 28.264 28.262 28.264h55.461c15.558 0 28.207-11.977 28.207-28.264v-55.404z m0 223.862c0-15.615-11.977-28.264-28.263-28.264h-55.405c-15.614 0-28.262 11.977-28.262 28.264v55.404c0 15.615 11.976 28.262 28.262 28.262h55.461c15.558 0 28.207-11.977 28.207-28.262v-55.404z m0 223.858c0-15.615-11.977-28.262-28.263-28.262h-55.405c-15.614 0-28.262 11.976-28.262 28.262v55.405c0 15.614 11.976 28.262 28.262 28.262h55.461c15.558 0 28.207-11.977 28.207-28.262v-55.405z m503.683-475.981H288.14V663.825h447.719v-559.649z m167.897 28.261c0-15.613-11.979-28.262-28.264-28.262h-55.461c-15.559 0-28.207 11.977-28.207 28.262v55.404c0 15.615 11.977 28.264 28.264 28.264h55.461c15.559 0 28.207-11.977 28.207-28.264v-55.404z m0 223.862c0-15.615-11.979-28.264-28.264-28.264h-55.461c-15.559 0-28.207 11.977-28.207 28.264v55.404c0 15.615 11.977 28.262 28.264 28.262h55.461c15.559 0 28.207-11.977 28.207-28.262v-55.404z m0 223.858c0-15.615-11.979-28.262-28.264-28.262h-55.461c-15.559 0-28.207 11.976-28.207 28.262v55.405c0 15.614 11.977 28.262 28.264 28.262h55.461c15.559 0 28.207-11.977 28.207-28.262v-55.405z"  horiz-adv-x="1024" />

    
    <glyph glyph-name="network" unicode="&#59005;" d="M512.896 288.256a112.256 112.256 0 0 1 0-224.32 112.256 112.256 0 0 1 0 224.32z m0-192.32c-44.16 0-80.128 36.032-80.128 80.192 0 44.096 35.968 80.128 80.128 80.128s80.128-36.032 80.128-80.128c0-44.16-35.968-80.192-80.128-80.192zM512.896 448.064a272.896 272.896 0 0 1-247.232-158.4 15.936 15.936 0 0 1 14.528-22.656 16 16 0 0 1 14.528 9.344 240.832 240.832 0 0 0 218.176 139.776 241.28 241.28 0 0 0 217.088-137.408 16 16 0 1 1 28.864 13.76 273.472 273.472 0 0 1-245.952 155.584zM512.896 576.0640000000001a398.016 398.016 0 0 1-358.144-221.632 15.936 15.936 0 0 1 7.168-21.44 15.872 15.872 0 0 1 21.44 7.104 366.208 366.208 0 0 0 329.536 203.968 365.696 365.696 0 0 0 330.368-205.824 16.128 16.128 0 0 1 21.44-7.296 16 16 0 0 1 7.296 21.376 397.504 397.504 0 0 1-359.104 223.744zM973.312 434.688A529.088 529.088 0 0 1 512.896 704 528.64 528.64 0 0 1 50.624 431.296a16 16 0 1 1 28.032-15.424 496.64 496.64 0 0 0 434.304 256.192 497.024 497.024 0 0 0 432.512-253.056 15.936 15.936 0 0 1 21.824-6.08 16.064 16.064 0 0 1 6.016 21.76z"  horiz-adv-x="1024" />

    
    <glyph glyph-name="internet" unicode="&#58954;" d="M934.506 384c0 55.115-10.732 108.607-31.895 158.991-20.438 48.659-49.719 92.432-87.029 130.101-37.289 37.648-80.758 67.346-129.203 88.269-50.017 21.601-103.212 32.871-158.103 33.497l-0.077 0.007c-0.407 0.047-1.024 0.119-1.753 0.119-0.314 0-0.631-0.018-0.981-0.055l-0.48 0.018c-0.485 0.021-0.97 0.038-1.465 0.038-86.266 0-168.831-26.442-238.768-76.47a412.76 412.76 0 0 1-88.519-85.981c-25.255-33.216-45.216-69.875-59.331-108.966l-6.375-19.381a409.955 409.955 0 0 1-17.993-120.188c0-55.478 10.868-109.301 32.302-159.975 20.701-48.939 50.332-92.891 88.075-130.634 37.742-37.742 81.694-67.374 130.635-88.074 50.672-21.434 104.495-32.302 159.974-32.302 2.524 0 5.001 0.086 7.463 0.172l0.317 0.01c0.922 0.032 1.841 0.064 2.764 0.09l0.741-0.071c0.953-0.094 2.031-0.201 3.218-0.201 2.253 0 4.541 0.185 6.989 0.56 81.857 4.222 159.735 32.487 225.236 81.749C834.575 103.70100000000002 882.95 169.10000000000002 910.155 244.462l6.377 19.349a410.002 410.002 0 0 1 17.975 120.187zM709.57 539.232c-12.205 49.298-29.859 94.855-52.497 135.463-20.23 36.289-40.266 61.088-55.643 77.071 116.943-24.675 214.838-103.194 264.489-212.533H709.57z m-16.678-157.706c0-40.341-3.415-79.925-10.154-117.714H384.799c-7.289 37.939-10.985 77.523-10.985 117.714 0 41.84 3.678 83.089 10.932 122.663h296.268c7.882-39.636 11.878-80.887 11.878-122.663z m-94.694 319.701c32.071-43.346 58.512-100.71 74.722-161.995H392.197c19.392 79.742 48.989 132.868 70.604 163.577 27.781 39.467 52.983 57.133 65.636 57.133 12.675 0 39.913-18.373 69.761-58.716z m-187.244-20.534c-23.161-42.15-41.841-91.001-54.109-141.462H181.117c51.822 114.159 158.657 195.836 281.865 215.854-18.15-19.722-35.991-45.206-52.028-74.393zM167.277 504.189h182.058c-7.001-38.197-10.549-77.097-10.549-115.708 0-42.044 3.798-83.963 11.29-124.67H167.26c-13.063 38.692-19.684 79.113-19.684 120.188 0 41.033 6.627 81.455 19.701 120.189z m190.384-275.421c12.363-51.247 30.858-100.028 53.568-141.252 16.493-29.941 34.995-55.583 53.964-74.884-124.213 19.399-231.868 101.149-284.061 216.135h176.527z m35.025 0h282.706c-15.006-62.201-40.021-119.789-70.682-162.598-32.857-45.873-59.071-58.112-69.381-58.112-10.033 0-36.441 15.502-68.073 58.211-23.008 31.065-54.401 84.276-74.571 162.498z m473.261 0c-48.209-106.062-142.921-183.875-255.891-210.591 42.443 48.56 79.019 125.993 99.178 210.591h156.713z m13.786 35.044H716.645a695.706 695.706 0 0 1 11.29 124.67c0 38.759-3.595 77.663-10.688 115.708h162.487c13.092-38.748 19.729-79.17 19.729-120.189s-6.637-81.442-19.729-120.188z"  horiz-adv-x="1024" />

    
    <glyph glyph-name="temperature-humidity" unicode="&#58905;" d="M195.834311 267.832889V730.624a80.008533 80.008533 0 0 0 79.985778 80.031289 79.917511 79.917511 0 0 0 79.985778-79.951645v-459.252622c0.056889-0.113778 56.888889-23.643022 56.888889-23.643022V730.715022C412.706133 806.3544890000001 351.459556 867.555556 275.831467 867.555556c-75.605333 0-136.874667-61.303467-136.874667-136.920178v-483.259734s56.888889 17.430756 56.888889 20.445867zM62.748444 132.869689c0-118.897778 96.733867-215.222044 216.007112-215.222045 119.273244 0 216.007111 96.324267 216.007111 215.222045 0 82.978133-47.581867 157.457067-121.014045 193.3312l-18.170311-37.205333c0.273067 0.159289 0.455111-17.328356 0.273067-17.590045 50.062222-27.625244 82.0224-80.224711 82.0224-138.535822 0-87.415467-71.213511-158.333156-159.118222-158.333156-87.904711 0-159.118222 70.917689-159.118223 158.333156 0 55.955911 29.411556 106.780444 76.401778 135.281778 0.056889-0.136533-0.318578 12.538311-0.352711 12.424533l-22.414222 40.129422C105.585778 282.91982199999995 62.737067 211.63804400000004 62.737067 132.869689zM250.311111 153.031111a28.444444 28.444444 0 1 1 56.888889 0V631.864889a28.444444 28.444444 0 1 1-56.888889 0V153.031111zM220.137244 127.04426699999999a58.618311 58.368 0 1 1 117.236623 0 58.618311 58.368 0 1 1-117.236623 0ZM955.733333 154.21439999999996c0 50.972444-28.512711 128.568889-70.576355 202.478933-44.782933 78.665956-90.077867 130.673778-128.705422 130.673778-38.638933 0-83.933867-51.996444-128.705423-130.673778-42.075022-73.898667-70.576356-151.517867-70.576355-202.478933C557.169778 42.439111000000025 646.257778-48.35555599999998 756.451556-48.35555599999998 866.633956-48.35555599999998 955.733333 42.45048899999995 955.733333 154.21439999999996z m-341.674666 0c0 38.786844 25.520356 108.282311 63.123911 174.341689 17.646933 30.993067 36.408889 58.379378 53.134222 77.596444 8.066844 9.250133 15.36 16.270222 21.367467 20.662045 2.446222 1.786311 4.471467 2.980978 5.916444 3.606755 0.329956 0.136533-0.034133 0.056889-1.149155 0.056889-1.1264 0-1.479111 0.079644-1.160534-0.056889 1.444978-0.625778 3.4816-1.820444 5.916445-3.606755 6.007467-4.391822 13.312-11.411911 21.367466-20.662045 16.736711-19.217067 35.498667-46.603378 53.134223-77.596444C873.324089 262.48533299999997 898.844444 193.00124400000004 898.844444 154.21439999999996 898.844444 73.636978 834.9696 8.53333299999997 756.451556 8.53333299999997c-78.518044 0-142.392889 65.103644-142.392889 145.681067zM770.696533 236.86257799999998a211.740444 211.740444 0 0 0 14.904889-20.969245c14.222222-22.869333 21.788444-45.169778 20.081778-63.806577-1.501867-16.406756-10.171733-30.651733-29.354667-43.736178a28.444444 28.444444 0 1 1 32.017067-47.012978c32.995556 22.482489 50.915556 51.928178 53.987556 85.560889 3.049244 33.28-8.260267 66.628267-28.421689 99.032178-10.365156 16.668444-20.753067 29.536711-28.114489 37.319111a28.444444 28.444444 0 1 1-41.301334-39.128178c1.046756-1.092267 3.242667-3.584 6.200889-7.259022z"  horiz-adv-x="1024" />

    
    <glyph glyph-name="noise" unicode="&#59459;" d="M704 224a32 32 0 0 0-32 32v256a32 32 0 0 0 64 0v-256a32 32 0 0 0-32-32z m96 64a32 32 0 0 0-32 32v128a32 32 0 0 0 64 0v-128a32 32 0 0 0-32-32z m-480-96a32 32 0 0 0-32 32V544a32 32 0 0 0 64 0v-320a32 32 0 0 0-32-32z m96-128a32 32 0 0 0-32 32V672a32 32 0 0 0 64 0v-576a32 32 0 0 0-32-32z m96 128a32 32 0 0 0-32 32V544a32 32 0 0 0 64 0v-320a32 32 0 0 0-32-32z m96 96a32 32 0 0 0-32 32v128a32 32 0 0 0 64 0v-128a32 32 0 0 0-32-32zM224 288a32 32 0 0 0-32 32v128a32 32 0 0 0 64 0v-128a32 32 0 0 0-32-32z"  horiz-adv-x="1024" />

    
    <glyph glyph-name="dust" unicode="&#59501;" d="M320 640a64 64 0 1 0 0.032-127.968A64 64 0 0 0 320 640z m384 0a64 64 0 1 0 0.032-127.968A64 64 0 0 0 704 640z m-192-32a32 32 0 1 0 0-64 32 32 0 0 0 0 64z m-192-352a64 64 0 1 0 0.032-127.968A64 64 0 0 0 320 256z m384 0a64 64 0 1 0 0.032-127.968A64 64 0 0 0 704 256z m-192-32a32 32 0 1 0 0-64 32 32 0 0 0 0 64z m192 192a32 32 0 1 0 0-64 32 32 0 0 0 0 64z m-384 0a32 32 0 1 0 0-64 32 32 0 0 0 0 64z m192 32a64 64 0 1 0 0.032-127.968A64 64 0 0 0 512 448z"  horiz-adv-x="1024" />

    
    <glyph glyph-name="cabinet" unicode="&#58973;" d="M978.944 588.8l-102.4 177.152a38.4 38.4 0 0 1-33.28 18.944H181.248a38.4 38.4 0 0 1-33.28-18.944L45.568 588.8a37.376 37.376 0 0 1-4.608-17.408v-512a79.36 79.36 0 0 1 78.848-79.872h784.384a79.36 79.36 0 0 1 79.36 79.36v512a37.376 37.376 0 0 1-4.608 17.92zM204.8 711.6800000000001h614.4l57.856-102.4H145.408z m701.952-652.8a2.56 2.56 0 0 0 0-2.56H119.808v200.704h786.944v-198.144zM117.248 332.79999999999995V534.528h789.504V332.79999999999995H117.248zM762.88 434.176m-38.4 0a38.4 38.4 0 1 1 76.8 0 38.4 38.4 0 1 1-76.8 0ZM762.88 156.67200000000003m-38.4 0a38.4 38.4 0 1 1 76.8 0 38.4 38.4 0 1 1-76.8 0Z"  horiz-adv-x="1024" />

    
    <glyph glyph-name="application" unicode="&#58981;" d="M404.8 720H176c-27.2 0-48-20.8-48-48v-227.2c0-27.2 20.8-48 48-48h227.2c27.2 0 48 20.8 48 48V672c1.6 27.2-20.8 48-46.4 48z m0-275.2H176V672h227.2v-227.2zM881.6 592L720 753.6c-8 9.6-20.8 14.4-33.6 14.4s-24-4.8-33.6-14.4L491.2 592c-19.2-19.2-19.2-49.6 0-67.2l161.6-161.6c9.6-9.6 22.4-14.4 33.6-14.4s24 4.8 33.6 14.4l161.6 161.6c19.2 19.2 19.2 49.6 0 67.2zM686.4 396.8L524.8 558.4 686.4 720 848 558.4 686.4 396.8z m-281.6-73.6H176c-27.2 0-48-20.8-48-48V48c0-27.2 20.8-48 48-48h227.2c27.2 0 48 20.8 48 48V275.20000000000005c1.6 27.2-20.8 48-46.4 48z m0-275.2H176V275.20000000000005h227.2V48zM800 323.20000000000005H572.8c-27.2 0-48-20.8-48-48V48c0-27.2 20.8-48 48-48H800c27.2 0 48 20.8 48 48V275.20000000000005c0 27.2-20.8 48-48 48zM800 48H572.8V275.20000000000005H800V48z"  horiz-adv-x="1024" />

    
    <glyph glyph-name="daily-record" unicode="&#58919;" d="M857.6 793.6c12.8 0 32-6.4 44.8-19.2 12.8-12.8 19.2-25.6 19.2-38.4v-710.4c0-12.8-6.4-25.6-19.2-38.4-12.8-12.8-25.6-19.2-44.8-19.2H166.4c-12.8 0-32 6.4-44.8 19.2-12.8 12.8-19.2 25.6-19.2 38.4V736c0 12.8 6.4 25.6 19.2 38.4 12.8 12.8 25.6 19.2 44.8 19.2h691.2m0 38.4H166.4C108.8 832 64 787.2 64 736v-710.4c0-44.8 44.8-89.6 102.4-89.6h691.2c57.6 0 102.4 44.8 102.4 96v704c0 51.2-44.8 96-102.4 96zM230.4 633.6c0-25.6 19.2-38.4 44.8-38.4s44.8 12.8 44.8 38.4c0 25.6-19.2 38.4-44.8 38.4s-44.8-19.2-44.8-38.4z m0-249.6c0-25.6 19.2-38.4 44.8-38.4S320 358.4 320 384c0 25.6-19.2 38.4-44.8 38.4s-44.8-12.8-44.8-38.4z m0-249.6c0-25.6 19.2-38.4 44.8-38.4 25.6 0 44.8 19.2 44.8 38.4 0 25.6-19.2 38.4-44.8 38.4-25.6 6.4-44.8-12.8-44.8-38.4z m563.2 480H396.8c-12.8 0-19.2 6.4-19.2 19.2 0 6.4 6.4 19.2 19.2 19.2h396.8c12.8 0 19.2-6.4 19.2-19.2 0-12.8-12.8-19.2-19.2-19.2z m0-249.6H396.8c-12.8 6.4-19.2 12.8-19.2 25.6s6.4 19.2 19.2 19.2h396.8c12.8 0 19.2-6.4 19.2-19.2 0-12.8-6.4-19.2-19.2-25.6z m0-249.6H396.8c-12.8 0-19.2 6.4-19.2 19.2 0 12.8 6.4 19.2 19.2 19.2h396.8c12.8 0 19.2-6.4 19.2-19.2 0-12.8-12.8-19.2-19.2-19.2z"  horiz-adv-x="1024" />

    
    <glyph glyph-name="refresh" unicode="&#58885;" d="M888.23 503.917L718.385 503.917c-21.6679 0-39.1942 17.5561-39.1942 39.1961 0 21.6382 17.5273 39.1942 39.1942 39.1942l68.1819 0c-61.5039 86.9065-162.641 143.715-277.223 143.715-187.607 0-339.692-152.086-339.692-339.69 0-187.606 152.086-339.691 339.692-339.691 187.606 0 339.691 152.086 339.691 339.691 0 21.6382 17.5264 39.1942 39.1933 39.1942 21.64 0 39.1971-17.5561 39.1971-39.1942 0-230.899-187.2-418.082-418.082-418.082-230.885 0-418.083 187.182-418.083 418.082 0 230.898 187.198 418.081 418.083 418.081 140.127 0 263.895-69.0866 339.691-174.935l0 70.4143c0 21.64 17.5264 39.1952 39.1933 39.1952 21.64 0 39.1971-17.5552 39.1971-39.1952l0-156.78C927.427 521.473 909.868 503.917 888.23 503.917Z"  horiz-adv-x="1024" />

    
    <glyph glyph-name="cancel" unicode="&#58963;" d="M829.69736328 12.699023440000019L511.91914063 330.47460937000005 194.19892578 12.753515630000038c-14.77705078-14.77792969-38.76240234-14.88515625-53.59306641-0.05449219-14.75244141 14.75332031-14.67070312 38.78701172 0.08261719 53.56933594l317.74570313 317.72021484L140.68847656 701.73867187c-14.78232422 14.77705078-14.75244141 38.83974609 0 53.5921875 14.80341797 14.80341797 38.78701172 14.77880859 53.59306641-0.028125l317.72109375-317.72109375L829.72197266 755.30273438c14.80693359 14.80605469 38.76240234 14.80605469 53.53945312 0.02812499 14.83242187-14.83505859 14.77880859-38.73603516-0.02460937-53.53857421l-317.72460938-317.72460938L883.2921875 66.29296875c14.83154297-14.80693359 14.83154297-38.78613281 0.02460937-53.56582031-14.75332031-14.85878906-38.78613281-14.85878906-53.61855468-0.028125z m0 0"  horiz-adv-x="1024" />

    
    <glyph glyph-name="customer-service" unicode="&#58881;" d="M968.83 224.90499999999997c-6.998-26.215-24.099-47.036-45.978-59.495-16.76-13.448-37.956-21.504-61.03-21.504-1.195 0-2.356 0.137-3.516 0.376C821.578-17.783000000000015 687.503-128 512.74-128c-175.104 0-309.146 109.943-346.078 271.906-18.5 0.137-35.806 5.427-50.517 14.54-28.98 10.48-52.6 34.476-61.133 66.459-11.537 43.076 4.233 73.762 24.371 94.105-0.41 11.537-0.478 23.347-0.239 35.943-2.662 133.222 37 245.657 114.722 325.188 37.035 37.922 82.057 67.004 133.7 86.835C335.589 839.168 413.754 896 508.679 896c94.96 0 173.124-56.832 181.146-129.024 51.61-19.831 96.665-48.913 133.7-86.835 77.687-79.53 117.316-192.17 114.688-325.803 0.205-9.899 0.17-19.729-0.068-29.423 22.937-20.07 43.383-52.531 30.686-100.01zM508.678 863.095c-70.724 0-130.082-36.01-145.237-84.138 44.134 12.63 92.365 19.08 143.974 19.08h2.526c51.61 0 99.874-6.45 144.009-19.08-15.156 48.128-74.548 84.138-145.272 84.138z m377.515-508.757c2.423 120.15-32.086 219.955-99.84 289.28-65.331 66.901-160.939 102.264-276.412 102.264l0.307-19.32h-1.33l-0.308 19.285-1.195 0.035c-115.473 0-211.046-35.397-276.412-102.264-67.72-69.359-102.263-169.13-99.84-288.631 0-1.332-0.034-2.663-0.034-3.96 24.576 6.52 42.838-12.254 45.5-14.097 92.092 30.652 132.233 128.546 132.676 129.57 3.38 8.397 12.869 12.527 21.3 9.148 8.396-3.38 12.492-12.902 9.147-21.333-1.877-4.745-44.885-110.388-148.514-147.15-1.331-21.469-2.56-43.895-2.32-51.848l0.34-18.602c0-195.482 132.78-331.81 322.833-331.81h1.263c148.14 0 261.598 83.353 304.06 212.992-5.29-6.213-10.752-12.288-16.452-18.125-35.635-36.625-78.165-65.127-126.43-84.685-33.826-13.688-69.87-22.733-107.69-27.102-4.2-16.76-25.84-29.594-52.122-29.594-29.32 0-53.112 15.872-53.112 35.5 0 19.592 23.791 35.532 53.112 35.532 20.685 0 38.468-7.987 47.206-19.558 117.214 12.902 211.866 72.806 268.903 164.18 3.106 20.003 4.744 40.824 4.744 62.362l0.068 2.902c-0.546 0.546-1.058 1.092-1.502 1.706-44.373 57.754-109.5 71.578-178.414 86.221-34.373 7.305-69.906 14.848-104.585 28.058-125.713 47.82-192.444 158.174-195.209 162.816-4.642 7.816-2.116 17.886 5.667 22.562 7.782 4.642 17.817 2.116 22.46-5.666 0.648-1.058 63.965-105.301 178.721-148.958 32.29-12.288 66.595-19.558 99.738-26.624 63.352-13.449 128.614-27.307 178.62-76.8a17.802 17.802 0 0 0 1.638 1.57c0.956 15.872 1.912 28.536 2.765 33.348 0.102 0.649 0.239 1.263 0.375 1.912-0.307 1.263 5.632 32.12 40.312 32.12 0 0.92-0.034 1.843-0.034 2.764z m-455.748-89.975l-44.613-22.324 44.613-22.425c-8.875-22.904-30.857-39.253-56.867-39.253-33.996 0-61.474 27.613-61.474 61.678 0 33.997 27.478 61.577 61.474 61.577 26.01 0 47.992-16.247 56.867-39.253z m229.683 39.014c25.941 0 48.025-16.282 56.9-39.22l-44.715-22.39 44.715-22.358c-8.875-22.972-30.959-39.287-56.9-39.287-33.997 0-61.474 27.58-61.474 61.644 0 34.031 27.477 61.611 61.474 61.611z"  horiz-adv-x="1024" />

    
    <glyph glyph-name="save" unicode="&#59101;" d="M960-128H64c-35.2 0-64 28.8-64 64V832C0 867.2 28.8 896 64 896h688c19.2 0 38.4-9.6 51.2-25.6l208-265.6c9.6-9.6 12.8-25.6 12.8-38.4V-64c0-35.2-28.8-64-64-64zM752 832H64v-896h896V566.4L752 832zM672 640H224c-19.2 0-32 12.8-32 32s12.8 32 32 32h448c19.2 0 32-12.8 32-32s-12.8-32-32-32zM800 448H224c-19.2 0-32 12.8-32 32s12.8 32 32 32h576c19.2 0 32-12.8 32-32s-12.8-32-32-32zM832-128H192v256c0 35.2 28.8 64 64 64h512c35.2 0 64-28.8 64-64v-256zM256-64h512v192H256v-192z"  horiz-adv-x="1024" />

    
    <glyph glyph-name="anfang" unicode="&#58900;" d="M635.064744 663.306459h-92.092323v14.399068a30.978565 30.978565 0 1 1-61.957131 0v-14.399068h-92.154033c-63.767299 0-110.008877-41.983567-110.008876-99.847249a30.978565 30.978565 0 1 1 61.957131 0c0 36.10052 40.049978 37.910688 48.072316 37.910689h246.182916c8.022338 0 48.010605-1.810169 48.010605-37.910689a30.978565 30.978565 0 1 1 61.957131 0c0 57.863682-46.262147 99.847249-109.967736 99.847249z m0 0M708.84968 500.144453H665.426206v20.570097a30.978565 30.978565 0 1 1-61.957131 0v-20.570097h-183.917233v20.570097a30.999136 30.999136 0 1 1-61.977702 0v-20.570097h-42.477249a30.978565 30.978565 0 1 1 0-61.957131h42.230408c3.291215-90.035313 28.962696-141.275424 80.429078-178.322167-13.905385-4.504851-37.190735-11.745525-57.369999-16.826339a30.978565 30.978565 0 0 1 15.07788-60.085253c33.446977 8.392599 72.900422 21.763162 74.875152 22.421406 14.604769 5.121954 28.283883 10.285048 41.140193 15.509853q20.570097-8.372029 41.489885-15.633274c1.645608-0.534823 41.140193-13.905385 74.54603-22.297985a30.978565 30.978565 0 1 1 15.077881 60.085253c-20.179265 5.080814-43.464614 12.342058-57.287719 16.805768 51.589802 37.026174 77.261283 88.307425 80.429078 178.342738h43.094352a30.978565 30.978565 0 1 1 0 61.957131z m-197.308366-212.262827c-62.409673 28.798135-89.150799 63.294187-92.339164 150.305696h184.678327c-3.064944-87.032079-29.76493-121.528131-92.339163-150.305696z m0 0M941.600323 694.655287c-76.109357 51.322391-111.078522 94.025912-150.161705 182.662458A30.978565 30.978565 0 0 1 760.130931 895.645701c-6.705851-0.637673-25.342359-3.620337-50.108755-7.672646-58.028243-9.482815-155.098528-25.383499-201.134405-25.897752-52.947429 0-146.91163 16.600068-203.006283 26.514855C284.200606 892.416195 268.03251 895.213729 261.552929 895.871972a31.369397 31.369397 0 0 1-32.08935-19.952994C193.795031 780.987982 157.32425 735.610349 84.89694 696.136334A30.855145 30.855145 0 0 1 68.687704 668.942666C68.687704 183.241545 256.369265 48.466272 493.974451-122.18325a30.978565 30.978565 0 0 1 36.14166 0C776.91613 55.274974 955.258868 183.467816 955.258868 668.963236a31.040276 31.040276 0 0 1-13.658545 25.692051zM512.034996-58.950773C284.776569 104.540355 134.779424 223.126962 130.747685 650.882121c69.938328 41.695586 111.222512 91.845481 147.405312 179.618084l16.805769-2.879814c58.213373-10.285048 155.50993-27.522789 213.929005-27.522789h3.538057c47.948895 0.617103 143.990676 16.312087 207.593415 26.741125l24.560695 3.990599c38.054679-80.079386 78.454348-128.295693 148.701229-178.034186-3.682047-429.009935-153.720332-547.802243-381.205031-711.725343z m0 0"  horiz-adv-x="1024" />

    
    <glyph glyph-name="language" unicode="&#59026;" d="M868.15399 112.20522700000004A31.871462 31.871462 0 0 0 863.99406 128.01296000000002c0 46.463216-4.287928 46.463216-73.342762-22.655618-68.286848-68.286848-137.853674-83.390593-181.308941-39.999325-38.207355 38.271354-34.623416 106.622201 7.999865 149.30948a76.798704 76.798704 0 0 1 23.359606 46.719212c1.215979 8.31986 1.599973 15.359741 2.047966 31.807463 1.407976 54.207085 7.999865 81.086632 37.951359 112.766097 19.711667 20.863648 35.199406 89.854484 28.991511 131.965773a81.278628 81.278628 0 0 1-1.471975 7.423875c-8.639854-7.231878-23.423605-23.807598-41.599298-51.071138-64.638909-97.022363-140.861623-132.605762-212.73241-108.606167C396.801944 404.680291 352.0027 462.279319 352.0027 512.00648c0 33.535434 9.023848 57.599028 35.391403 110.334138 10.495823 20.991646 14.847749 30.079492 19.199676 41.087307 6.335893 15.99973 9.407841 29.05551 9.407841 40.575315 0 5.119914-71.358796 5.119914-216.252351-31.039476a31.935461 31.935461 0 0 0-26.04756 4.799919 446.264469 446.264469 0 0 1-108.926162-320.698588C159.557947 406.216265 224.00486 380.10470599999996 224.00486 279.30640700000004c0-59.199001 27.711532-84.414576 95.99838-84.414576 102.398272 0 159.9973-52.351117 159.9973-148.349496 0-45.63123-13.05578-81.022633-37.759363-105.150226a447.288452 447.288452 0 0 1 425.912813 170.813118z m48.767177 79.870652A447.99244 447.99244 0 0 1 255.940321 751.618436C404.865808 782.7859100000001 480.00054 773.762063 480.00054 704.00324c0-20.671651-4.863918-41.215304-13.951765-64.190917a544.246816 544.246816 0 0 0-21.439638-46.079222C423.041501 550.277834 416.00162 531.846145 416.00162 512.00648c0-21.119644 26.367555-55.039071 58.111019-65.662892 41.4713-13.823767 89.342492 8.511856 139.26165 83.390593 70.206815 105.342222 145.597543 113.21409 159.613307 17.535704 8.767852-59.966988-11.007814-148.477494-45.695229-185.212875-16.127728-17.023713-19.519671-30.911478-20.543653-70.52681a302.522895 302.522895 0 0 0-2.687955-39.295336 140.221634 140.221634 0 0 0-41.407301-82.878602c-18.687685-18.623686-20.15966-46.591214-7.999865-58.68701 13.119779-13.183778 44.351252-6.399892 90.686469 39.999325 79.358661 79.294662 146.109534 96.638369 171.581105 41.407302zM334.083002-96.23925599999995c-5.055915 0-10.239827 0-15.551737 0.319995l0.255995 5.631905A512.183357 512.183357 0 0 0 512 896a511.99136 511.99136 0 1 0-177.916998-992.239256z m11.135812 64.318915c50.36715 3.199946 70.782806 27.327539 70.782806 78.462676 0 59.199001-27.711532 84.350577-95.99838 84.350576-102.398272 0-159.9973 52.479114-159.9973 148.413496 0 48.383184-13.05578 52.543113-79.742654 13.183777l-10.11183 17.087712a448.632429 448.632429 0 0 1 275.067358-341.498237z"  horiz-adv-x="1024" />

    
    <glyph glyph-name="log" unicode="&#58996;" d="M568.889-14.22199999999998h-512V782.222h739.555V384h-56.888V725.333H113.778v-682.666H512zM711.111 384c108.089 0 199.111-91.022 199.111-199.111S819.2-14.22199999999998 711.112-14.22199999999998 512 76.79999999999995 512 184.88800000000003 603.022 384 711.111 384m0 56.889c-142.222 0-256-113.778-256-256s113.778-256 256-256 256 113.778 256 256-113.778 256-256 256zM227.556 839.11h56.888v-170.667h-56.888z m341.333 0h56.889v-170.667h-56.89zM170.667 554.6669999999999h512v-56.89h-512z m0-170.667H455.11v-56.889H170.667z m0-170.667h227.555v-56.889H170.667zM853.333 99.55600000000004H682.667V327.11h56.889v-170.667h113.777z"  horiz-adv-x="1024" />

    
    <glyph glyph-name="battery" unicode="&#58910;" d="M693.333333 426.666667h128c17.066667 0 32 14.933333 32 32s-14.933333 32-32 32h-128c-17.066667 0-32-14.933333-32-32s14.933333-32 32-32zM981.333333 682.666667h-64V789.333333c0 23.466667-19.2 42.666667-42.666666 42.666667H640c-23.466667 0-42.666667-19.2-42.666667-42.666667v-106.666666h-170.666666V789.333333c0 23.466667-19.2 42.666667-42.666667 42.666667H149.333333c-23.466667 0-42.666667-19.2-42.666666-42.666667v-106.666666H42.666667c-23.466667 0-42.666667-19.2-42.666667-42.666667v-640c0-23.466667 19.2-42.666667 42.666667-42.666667h938.666666c23.466667 0 42.666667 19.2 42.666667 42.666667V640c0 23.466667-19.2 42.666667-42.666667 42.666667zM661.333333 768h192v-85.333333h-192V768zM170.666667 768h192v-85.333333H170.666667V768z m789.333333-746.666667H64V618.666667h896v-597.333334zM202.666667 426.666667H234.666667v-32c0-17.066667 14.933333-32 32-32s32 14.933333 32 32V426.666667h32c17.066667 0 32 14.933333 32 32s-14.933333 32-32 32H298.666667v32c0 17.066667-14.933333 32-32 32s-32-14.933333-32-32V490.666667H202.666667c-17.066667 0-32-14.933333-32-32S185.6 426.666667 202.666667 426.666667z"  horiz-adv-x="1024" />

    
    <glyph glyph-name="adapter" unicode="&#59037;" d="M550.4 493.248V581.952a51.2 51.2 0 1 0 0-88.704zM473.6 581.952v-88.704a51.2 51.2 0 1 0 0 88.704zM198.4 729.6h627.2a32 32 0 0 0 32-32v-627.2a32 32 0 0 0-32-32H198.4a32 32 0 0 0-32 32V697.6a32 32 0 0 0 32 32z m32-64v-563.2h563.2V665.6H230.4z m284.8-268.8a28.8 28.8 0 0 0 28.8-28.8v-51.2a28.8 28.8 0 1 0-57.6 0v51.2a28.8 28.8 0 0 0 28.8 28.8z m97.8176-133.2288a28.8 28.8 0 0 0 13.9264-38.272l-21.632-46.4a28.8 28.8 0 0 0-52.2048 24.3392l21.632 46.4a28.8 28.8 0 0 0 38.272 13.9328z m-205.984 2.5216a28.8 28.8 0 0 0 38.272-13.9264l21.6384-46.4a28.8 28.8 0 1 0-52.1984-24.3456l-21.6384 46.4a28.8 28.8 0 0 0 13.9264 38.272z"  horiz-adv-x="1024" />

    
    <glyph glyph-name="humidifier" unicode="&#58941;" d="M730.8 148.89999999999998H293.2c-11.5 0-20.8-9.4-20.8-20.8 0-42.8 16.8-83.1 47.2-113.6 30.5-30.5 70.8-47.2 113.6-47.2h157.5c42.8 0 83.1 16.8 113.6 47.2 30.5 30.5 47.2 70.8 47.2 113.6 0.1 11.4-9.2 20.8-20.7 20.8z m-37.7-123.1c-27.4-27.4-63.8-42.6-102.3-42.6H433.2c-38.5 0-74.8 15.1-102.3 42.6-27.4 27.4-42.6 63.8-42.6 102.3 0 2.7 2.2 4.8 4.8 4.8h437.5c2.7 0 4.8-2.2 4.8-4.8 0.2-38.6-14.9-74.9-42.3-102.3zM512 58m-16 0a16 16 0 1 1 32 0 16 16 0 1 1-32 0ZM512 103c-24.8 0-45-20.2-45-45s20.2-45 45-45 45 20.2 45 45-20.2 45-45 45z m0-86c-22.6 0-41 18.4-41 41s18.4 41 41 41 41-18.4 41-41-18.4-41-41-41zM487.3 82.79999999999995c-2-2-2-5.1 0-7.1s5.1-2 7.1 0 2 5.1 0 7.1c-2 1.9-5.2 1.9-7.1 0zM511.3 539.1c14.3 0 26 11.6 26 25.9s-11.7 25.9-26 25.9-26-11.6-26-25.9 11.7-25.9 26-25.9z m0 39.7c7.7 0 14-6.2 14-13.9s-6.3-13.9-14-13.9-14 6.2-14 13.9 6.3 13.9 14 13.9zM497.3 634.9c0 14.3-11.7 25.9-26 25.9s-26-11.6-26-25.9c0-14.3 11.7-25.9 26-25.9s26 11.7 26 25.9z m-40 0c0 7.6 6.3 13.9 14 13.9s14-6.2 14-13.9-6.3-13.9-14-13.9-14 6.3-14 13.9zM405.3 704.9c0-14.3 11.7-25.9 26-25.9s26 11.6 26 25.9-11.7 25.9-26 25.9-26-11.6-26-25.9z m26 13.9c7.7 0 14-6.2 14-13.9s-6.3-13.9-14-13.9-14 6.2-14 13.9 6.3 13.9 14 13.9zM485.3 704.9c0-14.3 11.7-25.9 26-25.9s26 11.6 26 25.9-11.7 25.9-26 25.9-26-11.6-26-25.9z m26 13.9c7.7 0 14-6.2 14-13.9s-6.3-13.9-14-13.9-14 6.2-14 13.9 6.3 13.9 14 13.9zM565.3 704.9c0-14.3 11.7-25.9 26-25.9s26 11.6 26 25.9-11.7 25.9-26 25.9-26-11.6-26-25.9z m26 13.9c7.7 0 14-6.2 14-13.9s-6.3-13.9-14-13.9-14 6.2-14 13.9 6.3 13.9 14 13.9zM631.3 749.1c14.3 0 26 11.6 26 25.9s-11.7 25.9-26 25.9-26-11.6-26-25.9 11.7-25.9 26-25.9z m0 39.7c7.7 0 14-6.2 14-13.9s-6.3-13.9-14-13.9-14 6.2-14 13.9 6.3 13.9 14 13.9zM551.3 749.1c14.3 0 26 11.6 26 25.9s-11.7 25.9-26 25.9-26-11.6-26-25.9 11.7-25.9 26-25.9z m0 39.7c7.7 0 14-6.2 14-13.9s-6.3-13.9-14-13.9-14 6.2-14 13.9 6.3 13.9 14 13.9zM471.3 749.1c14.3 0 26 11.6 26 25.9s-11.7 25.9-26 25.9-26-11.6-26-25.9 11.7-25.9 26-25.9z m0 39.7c7.7 0 14-6.2 14-13.9s-6.3-13.9-14-13.9-14 6.2-14 13.9 6.3 13.9 14 13.9zM391.3 749.1c14.3 0 26 11.6 26 25.9s-11.7 25.9-26 25.9-26-11.6-26-25.9 11.7-25.9 26-25.9z m0 39.7c7.7 0 14-6.2 14-13.9s-6.3-13.9-14-13.9-14 6.2-14 13.9 6.3 13.9 14 13.9zM577.3 634.9c0 14.3-11.7 25.9-26 25.9s-26-11.6-26-25.9c0-14.3 11.7-25.9 26-25.9s26 11.7 26 25.9z m-40 0c0 7.6 6.3 13.9 14 13.9s14-6.2 14-13.9-6.3-13.9-14-13.9-14 6.3-14 13.9zM470.5 507.1zM285.3 159.20000000000005h452c6.8 0 12.6 5.5 12.8 12.3 2.4 68.3-33.4 109-79 160.9-33.1 37.7-72.2 82.2-106.1 148.7-1.5 2.9-2.9 5.8-4.4 8.8-2.2 4.4-6.6 7.2-11.6 7.2h-75.6c-4.9 0-9.4-2.8-11.6-7.2-1.4-3-2.9-5.9-4.4-8.8-33.9-66.5-72.9-110.9-106.1-148.7-45.7-51.9-81.4-92.6-79-160.9 0.4-6.8 6.3-12.3 13-12.3z m78.3 162.7c34.8 39.6 75.9 86.4 111.3 157.7 0.5 0.9 1.4 1.5 2.4 1.5h68.2c1 0 2-0.6 2.4-1.5 35.3-71.4 76.5-118.2 111.3-157.7 43.6-49.6 75.2-85.5 75.2-144 0-1.5-1.2-2.7-2.7-2.7H291.1c-1.5 0-2.7 1.2-2.7 2.7 0 58.5 31.5 94.3 75.2 144zM477.3 507.1h69c2.2 0 4 1.8 4 4v8c0 2.2-1.8 4-4 4h-69c-2.2 0-4-1.8-4-4v-8c0-2.2 1.8-4 4-4z"  horiz-adv-x="1024" />

    
    <glyph glyph-name="mute" unicode="&#58961;" d="M513.568-28m-100 0a100 100 0 1 1 200 0 100 100 0 1 1-200 0ZM593.248 93.98400000000004H209.632c-29.888 0-54.176 7.872-54.176 38.688v38.624c0 49.568 67.712 70.752 113.568 81.728v236.704a252.8 252.8 0 0 0 1.184 24.352L215.424 585.344a346.88 346.88 0 0 1-22.72-124.224v-187.104c-59.232-14.432-100.608-66.016-100.608-131.328v-22.752c0-40.608 31.424-73.664 70.016-73.664h290.208l137.376 0.128h40.192l-36.64 47.584zM380.352 691.968c23.456 13.536 47.936 21.056 70.528 21.056h132.192c93.76 0 182.464-88.96 182.464-223.296v-236.704c45.856-10.976 113.6-32.16 113.6-81.728v-38.624c0-25.568-16.864-35.232-39.616-37.824l37.312-48.512h2.976c38.656 0 70.08 32.992 70.08 73.632v22.816c0 64.64-40.672 116-100.64 130.816v187.456c0 129.088-64.448 232.928-164.64 287.2C664.992 833.12 599.36 896 520.992 896c-76.096 0-137.888-60.352-157.376-144.384-6.944-3.552-13.312-7.968-19.904-12l36.64-47.648z m140.64 150.976a78.464 78.464 0 0 0 78.464-78.496H442.56a78.464 78.464 0 0 0 78.432 78.496zM876.128-68.96000000000004c10.08-13.088 8.288-31.424-4.064-40.96-12.384-9.504-30.592-6.592-40.672 6.496L106.752 836.928c-10.048 13.12-8.256 31.424 4.096 40.96 12.352 9.472 30.56 6.624 40.608-6.496l724.672-940.352z"  horiz-adv-x="1024" />

    
    <glyph glyph-name="question" unicode="&#58911;" d="M512-128C230.4-128 0 102.39999999999998 0 384S230.4 896 512 896s512-230.4 512-512-230.4-512-512-512z m0 960C265.6 832 64 630.4 64 384s201.6-448 448-448 448 201.6 448 448S758.4 832 512 832zM630.4 582.4c28.8-25.6 41.6-57.6 41.6-99.2 0-35.2-9.6-64-25.6-86.4-6.4-9.6-25.6-25.6-60.8-54.4-12.8-12.8-22.4-22.4-28.8-35.2-6.4-12.8-12.8-28.8-12.8-48v-12.8h-76.8v12.8c0 25.6 3.2 48 12.8 67.2 9.6 19.2 35.2 48 80 86.4l12.8 12.8c12.8 16 19.2 32 19.2 51.2 0 22.4-6.4 41.6-19.2 57.6-12.8 12.8-35.2 22.4-57.6 22.4-32 0-54.4-9.6-70.4-28.8-12.8-16-19.2-41.6-19.2-73.6H352c0 51.2 16 92.8 44.8 121.6 28.8 28.8 70.4 44.8 121.6 44.8 48 0 83.2-12.8 112-38.4zM544 195.20000000000005c9.6-9.6 16-22.4 16-35.2 0-16-6.4-25.6-16-35.2-9.6-9.6-22.4-12.8-38.4-12.8s-25.6 6.4-35.2 16c-9.6 9.6-16 22.4-16 35.2 0 16 6.4 25.6 16 35.2 9.6 9.6 22.4 12.8 35.2 12.8 16-3.2 28.8-6.4 38.4-16z"  horiz-adv-x="1024" />

    
    <glyph glyph-name="bullet-box" unicode="&#59117;" d="M63.1 831.9v-896h896v896h-896z m833.5-832.4h-768V640.2h768v-640.7z"  horiz-adv-x="1024" />

    
    <glyph glyph-name="waters-drop" unicode="&#58913;" d="M427.52 894.464c12.288-4.096 19.456-13.824 26.624-24.064 65.536-93.184 128-188.416 185.856-287.232 12.8-22.016 3.584-46.08-20.48-50.688-13.312-2.56-25.6 4.096-33.792 17.92-13.824 23.04-27.136 47.104-41.984 69.632C504.832 680.96 464.896 741.376 424.96 801.792c-1.024 1.536-2.56 3.072-4.096 5.632-10.24-15.36-20.48-29.696-30.72-44.544-59.904-88.576-117.248-179.2-168.448-273.92C189.44 429.056 159.744 367.616 138.24 302.592c-24.576-75.776-13.312-147.456 24.576-215.04 46.592-83.456 119.296-133.12 213.504-148.992 49.664-8.192 98.304-3.072 145.92 14.336 6.144 2.048 13.312 4.096 19.968 4.096 15.36-0.512 26.624-11.776 29.184-27.136 2.048-13.312-5.632-28.16-19.456-32.768-22.528-7.68-45.568-15.36-69.12-19.456-91.648-15.36-177.152 0.512-255.488 51.712-88.576 57.856-142.336 139.264-160.256 243.712l-4.608 30.72v47.616c0.512 1.024 1.024 2.048 1.536 3.584 6.144 25.6 10.24 52.224 18.432 77.312 22.528 70.656 56.32 136.192 91.648 200.704C238.08 649.7280000000001 310.784 761.344 387.584 870.4c7.168 10.24 14.848 19.968 27.648 24.064h12.288zM964.608 139.264l-6.144-32.256c-23.04-103.424-112.64-181.76-218.112-190.464-132.608-11.264-248.32 80.384-267.776 211.968-5.632 38.912 1.024 76.288 14.336 112.64 19.456 53.76 45.568 103.424 74.24 153.088 39.936 69.12 83.456 135.68 129.536 200.704 9.216 13.312 23.04 18.432 36.352 13.312 6.144-2.56 12.288-6.656 16.384-11.776 68.608-96.768 133.12-195.584 183.808-303.104 16.896-35.84 31.232-72.704 36.352-112.64 0-0.512 0.512-1.024 1.024-2.048v-39.424z m-246.272 385.024c-2.56-3.584-4.096-5.632-5.632-7.68-25.6-39.936-51.712-78.848-76.8-119.296-31.744-51.712-61.44-104.96-83.968-161.792-13.312-33.792-22.528-68.096-15.872-105.472 17.408-94.72 104.96-163.328 204.288-150.528 62.976 8.192 110.08 41.472 140.288 97.792 16.896 31.232 25.6 64.512 19.456 99.84-4.096 22.528-11.776 45.056-20.48 66.56-26.624 65.024-62.464 125.44-99.328 184.832-19.968 31.744-40.96 62.976-61.952 95.744zM184.832 238.59199999999998c1.024 58.88 16.384 107.52 50.176 150.016 5.12 6.656 12.288 10.24 20.992 7.68 8.192-2.048 13.312-7.68 13.312-15.872 0-5.12-1.536-10.752-4.608-14.848-41.984-55.808-51.712-117.248-32.768-183.296 10.752-37.888 37.376-64.512 68.096-87.04 5.632-4.096 12.288-7.68 17.92-11.776 9.728-6.144 12.8-16.896 7.68-25.6-5.12-9.216-16.384-12.8-26.112-7.168-59.904 35.328-102.4 83.456-112.128 154.624-1.024 12.8-1.536 25.6-2.56 33.28zM588.8 170.49599999999998c-0.512-40.96 11.264-77.824 41.472-107.008 12.8-12.288 27.648-22.528 42.496-32.256 8.704-5.632 19.456-1.024 24.576 7.68 4.608 8.192 2.56 18.432-5.12 24.576-2.048 1.536-4.096 2.56-5.632 3.584-50.688 31.744-68.096 76.288-54.272 137.216 4.096 17.408 12.288 32.256 23.04 46.08 7.168 8.704 6.144 19.968-2.048 26.624-8.192 6.656-18.944 5.632-26.624-2.56-2.048-2.048-4.096-4.608-5.632-7.168-22.016-28.672-32.256-60.928-32.256-96.768zM588.8 170.49599999999998c0.512 35.328 10.24 68.096 30.72 96.768 1.536 2.56 3.584 5.12 5.632 7.168 7.68 8.192 18.944 9.216 26.624 2.56 8.192-6.656 9.216-17.92 2.048-26.624-11.264-13.824-18.944-29.184-23.04-46.08-13.824-60.928 4.096-105.472 54.272-137.216 2.048-1.024 4.096-2.048 5.632-3.584 8.192-6.144 10.24-15.872 5.12-24.576-5.12-8.704-15.872-13.312-24.576-7.68-14.848 9.728-29.696 19.968-42.496 32.256-29.184 29.184-40.448 66.048-39.936 107.008z"  horiz-adv-x="1024" />

    
    <glyph glyph-name="-" unicode="&#58902;" d="M207.36 538.026667H721.066667V490.666667H207.36zM207.36 362.66666699999996h285.866667v-47.36h-285.866667zM56.746667-39.253333v768a42.666667 42.666667 0 0 0 42.666666 42.666666h119.04a42.666667 42.666667 0 0 0 42.666667-42.666666 30.72 30.72 0 0 1 30.72-30.72H640a30.72 30.72 0 0 1 30.72 30.72 42.666667 42.666667 0 0 0 42.666667 42.666666h120.32a42.666667 42.666667 0 0 0 42.666666-42.666666v-222.293334h47.36V785.92a30.72 30.72 0 0 1-30.72 30.72h-183.04a42.666667 42.666667 0 0 0-42.666666 42.666667V865.28A30.72 30.72 0 0 1 640 896H290.56a30.72 30.72 0 0 1-30.72-30.72v-7.253333a42.666667 42.666667 0 0 0-42.666667-42.666667H40.106667a30.72 30.72 0 0 1-30.72-30.72v-883.2a30.72 30.72 0 0 1 30.72-29.44H358.4v47.36H98.133333a42.666667 42.666667 0 0 0-41.386666 41.386667zM307.2 807.253333a42.666667 42.666667 0 0 0 42.666667 42.666667h230.826666a42.666667 42.666667 0 0 0 42.666667-42.666667v-21.333333a42.666667 42.666667 0 0 0-42.666667-42.666667H348.586667a42.666667 42.666667 0 0 0-42.666667 42.666667zM750.08 116.05333299999995A162.986667 162.986667 0 0 1 896 205.22666700000002a178.346667 178.346667 0 0 1-22.186667 189.44 39.253333 39.253333 0 0 1-8.533333 8.533333 197.546667 197.546667 0 0 1-115.2 40.106667 163.84 163.84 0 0 1-163.413333-163.84 163.84 163.84 0 0 1 163.413333-163.413334z m0 279.466667A115.626667 115.626667 0 0 0 853.333333 332.79999999999995a124.16 124.16 0 0 0-13.226666-131.413333 47.786667 47.786667 0 0 0-11.52-11.52 136.533333 136.533333 0 0 0-78.506667-26.453334 116.48 116.48 0 0 0-116.053333 116.053334 116.053333 116.053333 0 0 0 116.053333 116.053333zM749.653333 105.38666699999999c-124.586667 0-232.96-95.573333-264.96-233.386667H512a31.573333 31.573333 0 0 1 29.44 21.76 229.12 229.12 0 0 0 209.066667 163.84 229.12 229.12 0 0 0 209.066666-163.84 31.573333 31.573333 0 0 1 29.44-21.76h26.453334c-34.133333 137.813333-140.8 233.386667-265.813334 233.386667z"  horiz-adv-x="1024" />

    
    <glyph glyph-name="monitor" unicode="&#59001;" d="M76.13239644 820.12562439v-603.86624914h872.25124877V820.12562439H76.13239644zM9.03614654 887.2218743h1006.44374856v-738.05874897H9.03614654V887.2218743zM210.32489625-52.12562436999997h603.86624915v-67.09624991H210.32489625z m268.38499963 268.38499962h67.09624989v-268.38499962h-67.09624989zM511.45286583 298.44808786l324.98697668 365.1818239-50.11565678 44.60642564-272.12456718-305.78067515-186.50136526 233.14583949L180.14206759 427.39764477l54.75053992-38.79945488 96.05457201 135.5344248z"  horiz-adv-x="1024" />

    
    <glyph glyph-name="data-curve" unicode="&#58909;" d="M996.579425-57.298044000000004H96.944166A26.265777 26.265777 0 0 0 70.701956-31.055834000000004V860.6490220000001a35.350978 35.350978 0 0 1-70.701956 0v-891.704856A97.050219 97.050219 0 0 1 96.944166-128h899.635259a35.350978 35.350978 0 1 1 0 70.701956zM177.344074 257.39636399999995a35.233142 35.233142 0 0 1 24.993141 10.357836L430.645616 496.062601l221.650633-221.650633a35.350978 35.350978 0 0 1 50.00985 0l291.303843 291.315627a35.354513 35.354513 0 0 1-49.998066 49.998067l-266.310702-266.310702-221.650633 221.650633a35.350978 35.350978 0 0 1-49.998067 0l-253.348677-253.348677a35.350978 35.350978 0 0 1 24.993142-60.34412z"  horiz-adv-x="1031" />

    
    </font>
</defs>
</svg>
